<?xml version="1.0" encoding="utf-8"?>
<!-- Generator: Adobe Illustrator 17.0.0, SVG Export Plug-In . SVG Version: 6.00 Build 0)  -->
<!DOCTYPE svg PUBLIC "-//W3C//DTD SVG 1.1//EN" "http://www.w3.org/Graphics/SVG/1.1/DTD/svg11.dtd">
<svg version="1.1" id="Layer_1" xmlns="http://www.w3.org/2000/svg" xmlns:xlink="http://www.w3.org/1999/xlink" x="0px" y="0px"
	 width="42px" height="42px" viewBox="0 0 42 42" enable-background="new 0 0 42 42" xml:space="preserve">
<path fill="#F1F2F2" d="M21,0C9.402,0,0,9.402,0,21c0,11.598,9.402,21,21,21c11.598,0,21-9.402,21-21C42,9.402,32.598,0,21,0z
	 M15.596,31.035h-4.844V16.46h4.844V31.035z M13.174,14.471h-0.031c-1.625,0-2.679-1.12-2.679-2.519c0-1.43,1.084-2.518,2.742-2.518
	s2.677,1.088,2.709,2.518C15.915,13.351,14.864,14.471,13.174,14.471z M33.068,31.035h-4.846v-7.798c0-1.958-0.7-3.296-2.454-3.296
	c-1.339,0-2.134,0.901-2.486,1.772c-0.127,0.312-0.16,0.744-0.16,1.181v8.14h-4.846c0,0,0.065-13.208,0-14.575h4.846v2.065
	c0.644-0.991,1.793-2.407,4.367-2.407c3.188,0,5.579,2.083,5.579,6.559V31.035z"/>
</svg>
