<?xml version="1.0" encoding="utf-8"?>
<!-- Generator: Adobe Illustrator 17.0.0, SVG Export Plug-In . SVG Version: 6.00 Build 0)  -->
<!DOCTYPE svg PUBLIC "-//W3C//DTD SVG 1.1//EN" "http://www.w3.org/Graphics/SVG/1.1/DTD/svg11.dtd">
<svg version="1.1" id="Layer_1" xmlns="http://www.w3.org/2000/svg" xmlns:xlink="http://www.w3.org/1999/xlink" x="0px" y="0px"
	 width="80px" height="80px" viewBox="0 0 80 80" enable-background="new 0 0 80 80" xml:space="preserve">
<g>
	<g>
		<path fill="#012639" d="M0,40.428l10.87,18.695l21.74,0l10.87-18.695L32.61,21.733l-21.74,0L0,40.428z M34.649,40.428
			c0,7.079-5.779,12.817-12.908,12.817c-7.129,0-12.908-5.738-12.908-12.817c0-7.079,5.779-12.817,12.908-12.817
			C28.869,27.611,34.649,33.349,34.649,40.428z"/>
		<path fill="#26CAD3" d="M36.519,61.305L47.39,80l21.74,0L80,61.305L69.13,42.609l-21.74,0L36.519,61.305z M71.168,61.305
			c0,7.079-5.779,12.817-12.908,12.817c-7.129,0-12.908-5.738-12.908-12.817s5.779-12.817,12.908-12.817
			C65.388,48.487,71.168,54.226,71.168,61.305z"/>
		<path fill="#FF9E16" d="M36.519,18.695l10.87,18.695l21.74,0L80,18.695L69.129,0l-21.74,0L36.519,18.695z M71.167,18.695
			c0,7.079-5.779,12.817-12.908,12.817c-7.129,0-12.908-5.738-12.908-12.817S51.13,5.878,58.259,5.878
			C65.388,5.878,71.167,11.616,71.167,18.695z"/>
	</g>
</g>
</svg>
