<?xml version="1.0" encoding="utf-8"?>
<!-- Generator: Adobe Illustrator 17.0.0, SVG Export Plug-In . SVG Version: 6.00 Build 0)  -->
<!DOCTYPE svg PUBLIC "-//W3C//DTD SVG 1.1//EN" "http://www.w3.org/Graphics/SVG/1.1/DTD/svg11.dtd">
<svg version="1.1" id="Layer_1" xmlns="http://www.w3.org/2000/svg" xmlns:xlink="http://www.w3.org/1999/xlink" x="0px" y="0px"
	 width="78px" height="78px" viewBox="0 0 78 78" enable-background="new 0 0 78 78" xml:space="preserve">
<g id="Layer_2" display="none">
	<g display="inline">
		<g>
			<path fill="#26CAD3" d="M57.276,0.424c0.437,0.119,1.232,0.426,1.708,0.685c0.496,0.282,0.993,0.494,1.092,0.495
				s0.397,0.212,0.654,0.492s0.832,0.794,1.268,1.145c1.784,1.497,3.482,4.06,3.91,5.941c0.175,0.767,0.47,1.534,0.648,1.674
				c1.387,1.216,1.34,13.738-0.06,14.98c-0.18,0.161-0.443,0.878-0.606,1.596c-0.163,0.741-0.587,1.735-0.928,2.243
				c-0.341,0.484-0.622,0.97-0.623,1.062c-0.002,0.348-1.344,2.031-2.004,2.49c-0.38,0.276-1.04,0.85-1.46,1.265
				c-0.601,0.645-0.742,0.945-0.745,1.641c-0.005,1.02,0.604,2.439,1.081,2.535c0.199,0.048,0.814,0.446,1.369,0.868
				c1.328,1.007,3.809,2.462,4.167,2.465c0.159,0.001,0.377,0.142,0.456,0.305c0.079,0.163,0.911,0.818,1.844,1.451
				c2.182,1.477,3.509,2.646,4.3,3.764c1.719,2.447,2.39,3.519,2.507,3.983c0.078,0.302,0.275,0.698,0.453,0.884
				c0.712,0.863,1.683,5.554,1.688,8.36c0.01,1.809,0.249,1.764-8.708,1.63l-7.723-0.125l-1.246-1.516
				c-0.672-0.84-1.325-1.679-1.423-1.865c-0.295-0.605-2.378-2.127-5.116-3.747c-2.798-1.643-2.699-1.596-3.65-2.484
				c-0.911-0.865-0.828-1.49,0.375-3.058c0.541-0.715,1.003-1.407,1.003-1.546c0.001-0.162,0.182-0.532,0.422-0.832
				c0.742-0.992,2.135-4.669,2.605-6.915c0.388-1.852,0.473-2.872,0.492-6.373c0.02-3.756-0.037-4.383-0.484-6.381
				c-0.545-2.416-1.662-5.6-2.295-6.509c-0.217-0.326-0.671-1.118-1.006-1.746c-0.808-1.536-2.865-3.986-3.739-4.433
				c-1.687-0.893-2.56-1.526-3.034-2.225c-0.613-0.839-0.631-1.118-0.245-2.553c0.67-2.43,2.116-4.808,3.976-6.511
				c0.7-0.621,1.34-1.266,1.461-1.404c0.421-0.554,2.656-1.535,4.03-1.757C55.307,0.155,56.083,0.16,57.276,0.424z"/>
		</g>
		<g>
			<path fill="#26CAD3" d="M24.71,0.213c1.094,0.193,3.736,1.256,3.953,1.582c0.059,0.093,0.534,0.56,1.089,1.028
				c2.14,1.824,3.937,4.643,4.56,7.198c0.546,2.161-0.016,2.922-3.629,4.913c-0.559,0.298-1.921,1.865-3.385,3.848
				c-1.584,2.122-3.302,7.002-4.001,11.311c-0.247,1.598-0.162,8.069,0.133,8.697c0.118,0.256,0.352,1.255,0.526,2.23
				c0.405,2.415,2.293,6.788,3.638,8.467c0.554,0.7,1.007,1.468,1.006,1.746c-0.002,0.441-0.564,1.202-1.424,1.961
				c-0.16,0.138-1.578,1.009-3.175,1.925c-3.574,2.061-4.194,2.567-5.698,4.574c-1.864,2.468-1.326,2.356-9.926,2.271
				c-4.081-0.053-7.623-0.148-7.902-0.242c-0.457-0.142-0.496-0.282-0.47-1.441c0.028-1.577,0.565-5.121,0.97-6.486
				c0.486-1.573,1.373-3.677,1.552-3.676c0.1,0.001,0.621-0.714,1.163-1.568c0.903-1.431,3.366-4.196,3.745-4.193
				c0.199,0.001,3.356-2.109,3.496-2.34c0.06-0.092,0.659-0.436,1.298-0.756c2.335-1.189,5.252-3.186,5.594-3.879
				c0.462-0.878,0.451-2.408-0.025-2.899c-0.554-0.561-1.486-1.309-2.141-1.731c-0.337-0.188-0.891-0.934-1.285-1.725
				C14,30.282,13.487,29.42,13.25,29.094c-0.237-0.303-0.493-0.885-0.57-1.279c-0.078-0.372-0.175-0.743-0.255-0.813
				c-0.158-0.163-0.904-2.186-1.236-3.371c-0.41-1.533-0.309-9.324,0.16-11.408c0.224-0.926,0.507-1.782,0.667-1.943
				c0.16-0.138,0.281-0.462,0.282-0.694C12.3,9.33,12.36,9.145,12.46,9.145c0.08,0.001,0.261-0.439,0.403-0.994
				c0.365-1.296,1.589-3.073,3.41-4.961c1.561-1.612,2.799-2.322,5.132-2.931C22.721-0.08,23.079-0.077,24.71,0.213z"/>
		</g>
		<g>
			<path fill="#26CAD3" d="M41.983,16.315c1.67,0.36,3.317,1.438,4.8,3.188c1.385,1.61,2.293,3.031,2.547,3.984
				c0.078,0.279,0.256,0.605,0.414,0.768c0.257,0.257,0.473,0.931,1.37,4.416c0.175,0.697,0.431,1.348,0.55,1.442
				c0.278,0.187,0.261,7.121-0.019,7.328c-0.24,0.161-0.301,0.415-0.892,3.008c-0.529,2.245-2.362,6.221-3.202,6.887
				c-0.22,0.184-0.421,0.484-0.422,0.67c-0.001,0.185-0.381,0.577-0.861,0.898c-1.418,0.964-2.04,1.864-2.046,2.977
				c-0.004,0.672,0.133,1.207,0.449,1.673c0.593,0.862,2.297,2.312,3.211,2.667c0.377,0.165,1.449,0.752,2.382,1.339
				c0.933,0.563,2.084,1.244,2.56,1.526c0.496,0.282,1.071,0.703,1.289,0.96c0.238,0.257,0.693,0.654,1.05,0.912
				c0.337,0.258,0.674,0.608,0.732,0.794c0.059,0.186,0.237,0.35,0.396,0.351c0.179,0.001,0.793,0.585,1.407,1.286
				c1.128,1.33,2.427,4.029,2.855,5.887c0.117,0.557,0.392,1.209,0.609,1.465c0.317,0.373,0.433,0.977,0.582,2.833
				c0.318,3.898,0.236,4.222-1.078,4.398c-0.478,0.066-10.551,0.017-22.395-0.068c-21.339-0.2-21.558-0.201-21.953-0.668
				c-0.455-0.56-0.492-0.978-0.18-3.596c0.23-2.155,0.78-4.4,1.039-4.398c0.1,0.001,0.18-0.161,0.181-0.347
				c0.003-0.649,1.413-3.607,2.355-4.922c0.521-0.715,1.702-1.959,2.642-2.764s1.76-1.541,1.82-1.633
				c0.06-0.116,0.46-0.391,0.899-0.643c0.439-0.252,1.558-0.916,2.496-1.489c0.939-0.573,2.057-1.168,2.495-1.327
				c0.439-0.159,1.058-0.526,1.398-0.802c0.32-0.276,0.76-0.574,0.939-0.643c0.559-0.228,1.424-2.007,1.449-2.958
				c0.025-0.974-0.725-2.115-1.698-2.61c-0.516-0.282-0.773-0.632-2.629-3.59c-0.987-1.561-1.792-3.654-1.983-5.162
				c-0.077-0.534-0.194-0.952-0.274-0.953s-0.315-0.652-0.51-1.465c-0.507-2.044-0.5-7.007,0.026-8.58
				c0.202-0.602,0.464-1.087,0.563-1.086c0.1,0.001,0.18-0.207,0.182-0.462c0.004-0.765,0.915-3.541,1.497-4.534
				c0.281-0.485,0.743-1.27,1.025-1.755c0.261-0.462,0.703-1.085,0.963-1.384c0.26-0.3,0.521-0.646,0.562-0.784
				c0.162-0.462,2.22-1.978,3.418-2.549c1.058-0.479,1.635-0.591,3.646-0.646C39.954,16.138,41.466,16.195,41.983,16.315z"/>
		</g>
	</g>
</g>
<g id="Layer_3" display="none">
	<path display="inline" fill="#26CAD3" d="M77.852,37.651c-0.138-1.084-0.342-3.106-0.406-4.454c-0.11-1.733-0.273-2.6-0.511-2.867
		c-0.359-0.363-0.689-1.376-1.393-4.292c-0.187-0.795-0.471-1.615-0.638-1.809c-0.334-0.435-2.282-4.441-2.28-4.73
		c0.001-0.096-0.285-0.627-0.666-1.159c-0.596-0.87-1.169-1.595-2.984-3.628c-0.358-0.411-0.644-0.822-0.644-0.943
		c0.002-0.385-2.747-3.121-3.587-3.559c-0.456-0.243-1.437-1.067-2.202-1.866C61.8,7.57,60.843,6.745,60.387,6.478
		c-2.733-1.557-6.81-3.555-7.675-3.753c-2.21-0.543-4.346-1.254-4.513-1.496c-0.071-0.169-1.393-0.394-2.931-0.547
		c-1.515-0.13-3.246-0.333-3.822-0.457c-1.514-0.322-1.971-0.301-4.667,0.068c-1.324,0.184-3.177,0.341-4.091,0.336
		c-1.058-0.007-1.949,0.132-2.408,0.37c-0.41,0.19-1.278,0.522-1.929,0.686c-0.675,0.188-1.639,0.495-2.169,0.684
		s-1.109,0.354-1.277,0.377c-0.361-0.002-6.127,2.778-7.431,3.563c-0.435,0.286-1.378,1.075-2.08,1.768
		c-0.702,0.67-1.79,1.577-2.394,2.006c-1.57,1.049-3.118,2.459-3.121,2.82c-0.001,0.168-0.632,1.031-1.431,1.94
		c-0.775,0.886-1.6,1.963-1.819,2.395C6.41,17.67,6.094,18.101,5.95,18.196c-0.724,0.453-3.602,6.739-4.438,9.67
		c-1.843,6.365-2.021,15.628-0.42,21.244c1.248,4.315,3.383,9.237,4.673,10.616c0.239,0.266,0.525,0.725,0.595,0.99
		c0.095,0.265,0.762,1.208,1.502,2.103c0.74,0.871,1.767,2.153,2.292,2.854c0.525,0.677,1.338,1.5,1.793,1.816
		s1.484,1.188,2.273,1.939c0.789,0.775,2.034,1.721,2.753,2.159c0.719,0.414,1.366,0.827,1.438,0.899
		c0.072,0.097,0.383,0.267,0.695,0.365s1.104,0.488,1.751,0.877s1.223,0.705,1.271,0.706c0.048,0,0.672,0.269,1.392,0.586
		c0.696,0.341,2.04,0.831,2.952,1.077c0.912,0.27,2.065,0.662,2.593,0.882c1.032,0.44,6.176,1.001,9.279,1.02
		c3.873,0,8.952-0.474,9.989-0.949c0.531-0.262,1.784-0.639,2.772-0.873c1.156-0.282,2.724-0.922,4.365-1.826
		c1.424-0.761,2.751-1.378,2.967-1.377s0.651-0.213,0.941-0.5c0.29-0.263,0.918-0.692,1.377-0.93s1.28-0.882,1.813-1.433
		c0.533-0.526,1.596-1.41,2.345-1.934c0.773-0.525,1.523-1.17,1.669-1.434c0.243-0.456,3.757-4.669,4.508-5.434
		c0.17-0.167,0.315-0.431,0.316-0.576c0.001-0.144,0.147-0.456,0.341-0.647c0.775-0.862,3.53-6.74,4.047-8.661
		c0.296-1.129,0.712-2.306,0.93-2.641c0.243-0.36,0.442-1.489,0.572-3.004c0.104-1.323,0.333-3.247,0.507-4.28
		C78.054,40.035,78.059,39.192,77.852,37.651z M18.458,14.305c2.129-1.888,2.515-2.198,3.191-2.555
		c0.166-0.085,0.298-0.146,0.417-0.197c0.021-0.009,0.047-0.021,0.067-0.028c0.109-0.043,0.205-0.071,0.291-0.085
		c0.017-0.003,0.035-0.004,0.051-0.006c0.024-0.002,0.05-0.008,0.074-0.008c0.041,0,0.083,0.012,0.124,0.019
		c0.027,0.005,0.056,0.006,0.084,0.013c0.087,0.024,0.18,0.058,0.289,0.108c0.504,0.196,0.355,0.941-0.596,3.1
		c-0.83,1.872-0.951,2.039-1.794,2.299c-0.147,0.041-0.295,0.069-0.444,0.087c-0.049,0.006-0.098,0.006-0.147,0.01
		c-0.075,0.005-0.15,0.015-0.224,0.015c-0.026,0-0.052-0.004-0.078-0.005c-0.047-0.001-0.093-0.005-0.14-0.009
		c-0.098-0.007-0.195-0.019-0.29-0.035c-0.045-0.008-0.09-0.015-0.134-0.025c-0.109-0.024-0.214-0.054-0.316-0.09
		c-0.024-0.008-0.05-0.014-0.074-0.023c-0.123-0.047-0.24-0.103-0.349-0.167c-0.03-0.017-0.055-0.037-0.084-0.055
		c-0.078-0.05-0.152-0.104-0.221-0.162c-0.031-0.026-0.06-0.054-0.089-0.082c-0.061-0.059-0.115-0.122-0.165-0.188
		c-0.022-0.029-0.046-0.057-0.065-0.087c-0.064-0.098-0.119-0.2-0.156-0.31C17.466,15.237,17.539,15.094,18.458,14.305z
		 M7.322,33.606c0.4-2.5,1.361-6.224,1.823-6.943c0.194-0.312,0.536-1.056,0.78-1.703c0.244-0.624,0.682-1.416,0.997-1.75
		c0.315-0.335,0.751-0.91,0.946-1.27c0.195-0.384,0.679-0.958,1.091-1.317c0.112-0.093,0.214-0.175,0.31-0.246
		c0.03-0.022,0.058-0.036,0.087-0.056c0.064-0.043,0.128-0.088,0.19-0.12c0.035-0.018,0.071-0.027,0.106-0.042
		c0.055-0.023,0.11-0.048,0.168-0.062c0.04-0.01,0.085-0.01,0.126-0.015c0.049-0.006,0.096-0.018,0.149-0.018
		c0.007,0,0.017,0.003,0.025,0.003c0.065,0.001,0.141,0.014,0.214,0.024c0.053,0.007,0.101,0.009,0.159,0.021
		c0.085,0.018,0.189,0.048,0.288,0.077c0.061,0.017,0.115,0.029,0.182,0.05c0.122,0.039,0.269,0.092,0.414,0.144
		c0.064,0.023,0.117,0.04,0.186,0.065c0.225,0.084,0.477,0.181,0.764,0.293c2.52,0.954,2.758,1.34,2.454,3.913
		c-0.228,1.779-0.4,2.452-1.084,4.156c-0.098,0.264-0.252,1.827-0.358,3.487c-0.137,2.79-0.211,3.055-0.768,3.605
		c-0.581,0.574-0.677,0.597-4.623,0.645c-0.229,0.003-0.441,0.005-0.645,0.008c-0.038,0.001-0.073,0.001-0.11,0.001
		c-0.149,0.002-0.294,0.003-0.43,0.004c-0.072,0.001-0.141,0.001-0.209,0.002c-0.099,0.001-0.196,0.001-0.288,0.002
		c-0.066,0-0.131,0.001-0.193,0.001c-0.035,0-0.074,0-0.108,0c-0.025,0-0.042-0.001-0.067-0.001c-0.204,0-0.394-0.002-0.561-0.004
		c-0.01,0-0.022,0-0.032,0c-0.171-0.003-0.319-0.008-0.456-0.014c-0.03-0.001-0.06-0.003-0.088-0.004
		c-0.129-0.007-0.247-0.015-0.348-0.026c-0.013-0.001-0.024-0.003-0.036-0.005c-0.09-0.01-0.169-0.023-0.24-0.037
		c-0.016-0.003-0.033-0.006-0.048-0.009c-0.073-0.016-0.137-0.035-0.194-0.055c-0.011-0.004-0.022-0.009-0.033-0.013
		c-0.049-0.02-0.094-0.042-0.134-0.067c-0.006-0.004-0.014-0.007-0.02-0.011c-0.043-0.028-0.082-0.059-0.12-0.093
		c-0.009-0.008-0.018-0.017-0.027-0.025c-0.036-0.035-0.072-0.072-0.109-0.113C7.044,35.626,7.021,35.457,7.322,33.606z
		 M13.528,57.298h-0.001c-0.891-0.006-1.705-0.516-2.014-1.24c-0.142-0.386-0.357-0.7-0.477-0.701s-0.216-0.146-0.215-0.314
		c0.001-0.168-0.26-0.675-0.57-1.134c-0.31-0.459-0.643-1.111-0.737-1.448s-0.332-0.796-0.547-1.038
		c-0.191-0.218-0.499-1.037-0.662-1.809c-0.164-0.747-0.515-2.241-0.798-3.301c-0.563-2.362-0.599-4.263-0.067-4.789
		c0.032-0.032,0.071-0.061,0.114-0.088c0.006-0.004,0.011-0.007,0.017-0.011c0.043-0.025,0.095-0.048,0.153-0.069
		c0.01-0.004,0.021-0.007,0.032-0.011c0.061-0.02,0.13-0.038,0.21-0.054c0.014-0.003,0.029-0.005,0.043-0.008
		c0.085-0.016,0.18-0.031,0.29-0.043c0.011-0.002,0.025-0.003,0.037-0.004c0.117-0.012,0.246-0.023,0.394-0.032
		c0.004-0.001,0.008-0.001,0.012-0.001c0.15-0.009,0.321-0.016,0.508-0.022c0.023-0.001,0.044-0.002,0.067-0.002
		c0.185-0.005,0.39-0.009,0.613-0.012c0.034-0.001,0.069-0.001,0.104-0.001c0.229-0.002,0.478-0.004,0.75-0.004
		c0.013,0,0.022,0,0.034,0c0.024,0,0.053,0,0.077,0c0.272,0,0.559,0.001,0.876,0.003l3.945,0.024l0.718,0.654
		c0.693,0.678,0.717,0.702,0.842,3.927c0.085,1.781,0.196,3.298,0.292,3.37c0.263,0.218,0.947,2.484,1.084,3.616
		c0.137,1.252-0.135,2.405-0.642,2.667c-0.458,0.238-0.94,0.474-1.413,0.694c-0.131,0.061-0.258,0.118-0.388,0.176
		c-0.103,0.047-0.208,0.096-0.309,0.141c-0.134,0.059-0.259,0.112-0.387,0.167c-0.09,0.038-0.184,0.08-0.27,0.116
		c-0.091,0.038-0.171,0.068-0.257,0.104c-0.113,0.046-0.231,0.095-0.335,0.135c-0.077,0.03-0.14,0.051-0.212,0.077
		c-0.098,0.036-0.202,0.076-0.288,0.105c-0.071,0.024-0.123,0.038-0.185,0.057c-0.067,0.021-0.145,0.047-0.2,0.061
		c-0.049,0.012-0.074,0.012-0.112,0.019C13.613,57.284,13.557,57.298,13.528,57.298z M22.652,65.857
		c-0.016,0.046-0.042,0.087-0.078,0.123c-0.014,0.014-0.026,0.029-0.043,0.042c-0.057,0.044-0.125,0.082-0.208,0.107
		c-0.001,0.001-0.003,0-0.004,0.001c-0.082,0.024-0.176,0.034-0.275,0.037c-0.012,0-0.021,0.004-0.033,0.004
		c-0.018,0-0.039-0.006-0.057-0.007c-0.077-0.003-0.154-0.013-0.235-0.03c-0.033-0.007-0.064-0.012-0.097-0.021
		c-0.111-0.03-0.222-0.07-0.331-0.129c-0.959-0.487-4.023-2.936-4.022-3.177c0.001-0.144-0.19-0.41-0.405-0.58
		c-0.383-0.267-0.358-0.363,0.488-1.176c0.629-0.597,1.209-0.931,1.81-0.999c0.165-0.023,0.296-0.034,0.414-0.037
		c0.013,0,0.033-0.004,0.046-0.004c0.006,0,0.009,0.002,0.015,0.002c0.096,0.001,0.181,0.014,0.258,0.038
		c0.016,0.005,0.033,0.014,0.049,0.02c0.068,0.028,0.133,0.067,0.196,0.122c0.009,0.008,0.019,0.013,0.027,0.021
		c0.07,0.065,0.144,0.153,0.222,0.258c0.019,0.025,0.041,0.055,0.06,0.083c0.081,0.112,0.167,0.239,0.272,0.398
		c0.358,0.556,0.903,1.738,1.211,2.606c0.307,0.892,0.638,1.785,0.709,2.026c0.036,0.08,0.04,0.152,0.029,0.219
		C22.666,65.822,22.658,65.839,22.652,65.857z M36.505,64.081c-0.037,6.015-0.038,6.087-0.569,6.445
		c-0.072,0.053-0.171,0.104-0.287,0.149c-0.047,0.018-0.105,0.031-0.157,0.048c-0.077,0.025-0.151,0.051-0.236,0.071
		c-0.059,0.014-0.123,0.022-0.184,0.033c-0.086,0.016-0.17,0.035-0.257,0.046c-0.065,0.008-0.126,0.008-0.19,0.012
		c-0.08,0.006-0.162,0.016-0.237,0.016c-0.006,0-0.011,0-0.017,0c-0.89-0.005-1.226-0.176-2.518-1.291
		c-0.838-0.703-1.722-1.671-1.983-2.13c-0.262-0.459-0.715-1.111-1.002-1.426c-1.242-1.403-2.171-2.901-2.573-4.131
		c-0.236-0.723-0.497-1.399-0.616-1.544c-0.12-0.121-0.213-0.627-0.21-1.132c0.008-1.227,0.562-1.464,4.462-1.969
		c1.053-0.133,1.903-0.241,2.596-0.324c0.067-0.008,0.122-0.014,0.186-0.022c0.154-0.018,0.31-0.037,0.448-0.052
		c0.096-0.011,0.179-0.019,0.268-0.028c0.092-0.01,0.191-0.021,0.275-0.029c0.078-0.008,0.144-0.013,0.215-0.02
		c0.083-0.008,0.171-0.016,0.246-0.022c0.061-0.005,0.111-0.007,0.167-0.011c0.072-0.005,0.148-0.01,0.213-0.013
		c0.053-0.002,0.097-0.003,0.146-0.004c0.051-0.001,0.107-0.004,0.153-0.004c0.005,0,0.008,0.001,0.012,0.001
		c0.052,0,0.095,0.003,0.141,0.005c0.038,0.002,0.081,0.002,0.116,0.005c0.042,0.004,0.077,0.009,0.114,0.014
		c0.03,0.004,0.064,0.007,0.092,0.012c0.034,0.007,0.063,0.016,0.093,0.025c0.024,0.007,0.05,0.012,0.071,0.02
		c0.028,0.01,0.051,0.023,0.075,0.035c0.019,0.009,0.04,0.017,0.057,0.027c0.023,0.014,0.043,0.03,0.064,0.046
		c0.015,0.011,0.032,0.021,0.046,0.034c0.02,0.018,0.039,0.038,0.058,0.058c0.013,0.013,0.027,0.025,0.039,0.039
		c0.019,0.021,0.038,0.045,0.056,0.068c0.044,0.054,0.089,0.112,0.139,0.179C36.519,57.969,36.542,58.21,36.505,64.081z
		 M36.371,50.774c-0.342,0.84-1.378,1.122-5.084,1.34c-1.781,0.109-3.635,0.338-4.093,0.528s-1.35,0.401-1.975,0.469
		c-0.145,0.019-0.269,0.034-0.382,0.045c-0.035,0.004-0.066,0.005-0.098,0.008c-0.074,0.006-0.144,0.011-0.205,0.012
		c-0.015,0-0.034,0.003-0.048,0.003s-0.022-0.004-0.036-0.004c-0.072-0.002-0.138-0.009-0.195-0.021
		c-0.016-0.003-0.035-0.005-0.05-0.009c-0.067-0.019-0.126-0.048-0.18-0.087c-0.013-0.009-0.025-0.023-0.038-0.033
		c-0.042-0.035-0.083-0.078-0.124-0.128c-0.015-0.018-0.031-0.038-0.045-0.058c-0.05-0.069-0.102-0.147-0.16-0.242
		c-0.238-0.362-0.501-0.725-0.621-0.798c-0.12-0.097-0.42-2.168-0.693-4.648l-0.453-4.502l0.485-0.647l0.485-0.647l5.87-0.012
		c0.464-0.002,0.891-0.003,1.297-0.004c0.049,0,0.108-0.001,0.156-0.001c0.156,0,0.294,0.001,0.441,0.002
		c0.123,0,0.252,0,0.369,0.001c0.212,0.001,0.409,0.003,0.603,0.005c0.089,0.001,0.184,0.002,0.269,0.003
		c0.229,0.004,0.441,0.008,0.646,0.014c0.039,0.001,0.085,0.002,0.123,0.003c0.239,0.007,0.461,0.015,0.667,0.026
		c0.048,0.002,0.089,0.006,0.136,0.008c0.152,0.009,0.3,0.018,0.435,0.028c0.063,0.005,0.118,0.011,0.178,0.017
		c0.108,0.01,0.215,0.02,0.313,0.032c0.06,0.007,0.114,0.016,0.17,0.024c0.084,0.012,0.169,0.025,0.245,0.039
		c0.053,0.01,0.102,0.021,0.152,0.031c0.069,0.015,0.136,0.03,0.198,0.047c0.045,0.012,0.088,0.025,0.13,0.039
		c0.056,0.018,0.11,0.036,0.159,0.056c0.038,0.015,0.075,0.031,0.11,0.047c0.045,0.021,0.088,0.043,0.128,0.066
		c0.031,0.018,0.062,0.036,0.09,0.054c0.037,0.025,0.072,0.052,0.105,0.079c0.025,0.02,0.05,0.041,0.072,0.062
		c0.031,0.029,0.059,0.061,0.086,0.093c0.019,0.023,0.039,0.045,0.057,0.069c0.026,0.036,0.05,0.074,0.073,0.113
		c0.014,0.024,0.03,0.046,0.044,0.072c0.024,0.045,0.047,0.095,0.069,0.144c0.01,0.022,0.02,0.042,0.03,0.064
		c0.031,0.074,0.06,0.151,0.088,0.234C36.679,43.725,36.689,49.957,36.371,50.774z M36.711,30.756
		c-0.027,4.355-0.202,5.389-0.973,5.601c-0.217,0.071-3.225,0.173-6.689,0.199l-6.327,0.081l-0.381-0.604
		c-0.382-0.556-0.38-0.869,0.028-4.5c0.091-0.798,0.169-1.471,0.237-2.039c0.005-0.039,0.009-0.073,0.014-0.111
		c0.021-0.171,0.041-0.335,0.061-0.487c0.038-0.295,0.072-0.556,0.105-0.784c0.001-0.007,0.002-0.015,0.003-0.022
		c0.007-0.052,0.014-0.096,0.022-0.144c0.01-0.069,0.021-0.142,0.031-0.204c0.002-0.015,0.005-0.027,0.007-0.043
		c0.014-0.088,0.028-0.173,0.042-0.248c0.008-0.046,0.016-0.085,0.024-0.127c0.007-0.039,0.015-0.082,0.022-0.117
		c0.012-0.059,0.024-0.109,0.036-0.158c0.003-0.012,0.006-0.027,0.009-0.038c0.011-0.042,0.022-0.077,0.032-0.113
		c0.004-0.013,0.008-0.03,0.012-0.043c0.009-0.027,0.018-0.048,0.027-0.071c0.006-0.015,0.012-0.034,0.018-0.047
		c0.008-0.019,0.017-0.032,0.025-0.047c0.007-0.012,0.013-0.027,0.02-0.038s0.015-0.018,0.023-0.027
		c0.008-0.01,0.016-0.021,0.024-0.029c0.009-0.008,0.018-0.011,0.027-0.016c0.007-0.005,0.015-0.011,0.022-0.014
		c0.009-0.003,0.019-0.004,0.029-0.005c0.008-0.001,0.015-0.004,0.023-0.004h0.001c0.015,0,0.032-0.027,0.048-0.041
		c0.017-0.014,0.032-0.015,0.05-0.043c0.019-0.03,0.038-0.083,0.058-0.126c0.016-0.036,0.032-0.06,0.048-0.105
		c0.016-0.044,0.03-0.103,0.046-0.154c0.053-0.176,0.104-0.379,0.142-0.612c0.076-0.625,0.321-1.273,0.514-1.44
		c0.048-0.048,0.109-0.092,0.176-0.133c0.018-0.011,0.04-0.018,0.06-0.028c0.052-0.028,0.104-0.055,0.161-0.077
		c0.03-0.011,0.061-0.017,0.092-0.027c0.049-0.015,0.097-0.033,0.146-0.042c0.036-0.007,0.069-0.007,0.104-0.011
		c0.041-0.005,0.084-0.014,0.123-0.014c0.002,0,0.004,0,0.005,0c1.875,0.156,4.061,0.651,4.276,1.013
		c0.071,0.121,1.538,0.322,3.221,0.453C36.912,25.487,36.745,25.27,36.711,30.756z M36.818,13.456
		c-0.035,5.606-0.233,6.544-1.389,6.825c-0.062,0.015-0.151,0.025-0.254,0.032c-0.035,0.002-0.08,0.002-0.119,0.004
		c-0.06,0.002-0.113,0.005-0.181,0.005c-0.02,0-0.047-0.001-0.068-0.002c-0.058-0.001-0.123-0.003-0.187-0.004
		c-0.091-0.003-0.183-0.005-0.284-0.01c-0.073-0.004-0.149-0.008-0.227-0.013c-0.107-0.006-0.216-0.014-0.331-0.022
		c-0.084-0.006-0.168-0.013-0.255-0.02c-0.12-0.01-0.243-0.021-0.369-0.033c-0.09-0.008-0.179-0.017-0.272-0.026
		c-0.136-0.014-0.275-0.029-0.416-0.044c-0.088-0.01-0.175-0.019-0.265-0.029c-0.157-0.018-0.315-0.037-0.474-0.057
		c-0.078-0.01-0.155-0.018-0.234-0.028c-0.237-0.03-0.475-0.062-0.711-0.094c-0.022-0.003-0.044-0.006-0.066-0.009
		c-0.213-0.03-0.424-0.06-0.632-0.092c-0.08-0.012-0.156-0.024-0.235-0.037c-0.148-0.023-0.294-0.046-0.436-0.069
		c-0.085-0.014-0.164-0.028-0.247-0.042c-0.132-0.022-0.26-0.045-0.384-0.068c-0.08-0.014-0.155-0.029-0.232-0.043
		c-0.115-0.022-0.224-0.043-0.33-0.065c-0.072-0.015-0.142-0.029-0.209-0.044c-0.099-0.021-0.189-0.042-0.277-0.063
		c-0.059-0.014-0.118-0.028-0.172-0.042c-0.081-0.021-0.15-0.041-0.217-0.061c-0.043-0.013-0.089-0.025-0.125-0.038
		c-0.063-0.021-0.108-0.041-0.151-0.061c-0.022-0.01-0.051-0.02-0.068-0.029c-0.05-0.028-0.08-0.055-0.079-0.079
		c0.001-0.12-0.143-0.217-0.336-0.219c-0.914-0.006-0.668-0.87,1.378-4.996c0.56-1.103,1.143-2.062,1.336-2.133
		c0.169-0.071,0.508-0.454,0.703-0.838c0.463-0.887,2.035-2.322,3.29-3.012c0.139-0.071,0.277-0.138,0.409-0.198
		c0.076-0.034,0.142-0.061,0.212-0.09c0.053-0.022,0.11-0.048,0.159-0.068c0.05-0.02,0.086-0.03,0.131-0.046
		c0.056-0.02,0.118-0.044,0.163-0.058c0.033-0.01,0.046-0.009,0.072-0.015c0.038-0.009,0.085-0.022,0.106-0.022h0.001
		C36.901,7.73,36.854,7.609,36.818,13.456z M61.552,20.563c0.226-0.084,0.428-0.155,0.618-0.217c0.06-0.02,0.115-0.035,0.171-0.052
		c0.125-0.038,0.247-0.073,0.359-0.1c0.059-0.014,0.117-0.026,0.172-0.037c0.1-0.02,0.196-0.035,0.287-0.044
		c0.05-0.005,0.102-0.011,0.15-0.013c0.026-0.001,0.055-0.007,0.08-0.007c0.037,0,0.069,0.012,0.105,0.015
		c0.094,0.006,0.187,0.017,0.275,0.038c0.054,0.013,0.11,0.029,0.162,0.048c0.085,0.03,0.172,0.07,0.256,0.116
		c0.05,0.027,0.103,0.054,0.154,0.087c0.092,0.06,0.189,0.135,0.287,0.214c0.045,0.036,0.089,0.068,0.135,0.108
		c0.145,0.128,0.298,0.273,0.466,0.444c1.363,1.404,3.762,6.279,4.395,8.93c0.845,3.47,1.074,5.349,0.732,6.164l-0.317,0.72
		l-4.762-0.102c-5.676-0.131-5.7-0.131-5.902-2.611c-0.067-0.819-0.231-1.541-0.327-1.614c-0.12-0.073-0.211-0.867-0.206-1.758
		c0.006-0.89-0.246-2.961-0.573-4.6c-0.512-2.746-0.535-3.035-0.193-3.755C58.441,21.77,58.634,21.675,61.552,20.563z
		 M53.599,11.132c0.012-0.017,0.031-0.025,0.045-0.038c0.023-0.021,0.044-0.045,0.073-0.058c0.02-0.009,0.049-0.01,0.073-0.015
		c0.033-0.007,0.063-0.018,0.103-0.018c0.003,0,0.005-0.001,0.008-0.001c0.037,0,0.087,0.01,0.131,0.015
		c0.034,0.005,0.063,0.005,0.101,0.012c0.059,0.012,0.133,0.033,0.204,0.053c0.04,0.011,0.074,0.018,0.118,0.031
		c0.088,0.027,0.193,0.064,0.299,0.101c0.042,0.014,0.075,0.025,0.12,0.041c0.157,0.057,0.331,0.123,0.527,0.198
		c0.816,0.318,1.798,0.949,2.516,1.652c0.622,0.605,1.459,1.405,1.866,1.744c0.598,0.485,0.669,0.678,0.451,1.037
		c-0.067,0.112-0.165,0.22-0.278,0.326c-0.035,0.033-0.075,0.063-0.114,0.095c-0.088,0.073-0.183,0.142-0.288,0.209
		c-0.049,0.032-0.098,0.062-0.15,0.092c-0.119,0.068-0.243,0.132-0.375,0.192c-0.044,0.02-0.084,0.042-0.128,0.061
		c-0.177,0.075-0.361,0.143-0.548,0.202c-0.041,0.013-0.082,0.021-0.123,0.033c-0.148,0.042-0.295,0.079-0.443,0.109
		c-0.063,0.012-0.122,0.022-0.184,0.032c-0.13,0.021-0.255,0.036-0.379,0.044c-0.057,0.004-0.114,0.009-0.169,0.011
		c-0.029,0.001-0.06,0.006-0.088,0.006c-0.09,0-0.167-0.014-0.25-0.022c-0.053-0.005-0.11-0.005-0.16-0.014
		c-0.15-0.026-0.286-0.066-0.396-0.126c-0.479-0.268-1.789-2.513-1.785-3.067c0.001-0.12-0.213-0.627-0.498-1.134
		c-0.262-0.507-0.45-1.134-0.4-1.422c0.013-0.085,0.028-0.159,0.047-0.222c0.006-0.02,0.017-0.033,0.024-0.051
		C53.563,11.201,53.578,11.161,53.599,11.132z M41.783,8.049c0.107-0.103,0.236-0.174,0.376-0.228
		c0.044-0.017,0.092-0.025,0.139-0.037c0.103-0.028,0.21-0.046,0.325-0.052c0.028-0.001,0.051-0.013,0.08-0.013
		c0.028,0,0.06,0.012,0.088,0.013c0.153,0.007,0.312,0.03,0.477,0.07c0.038,0.009,0.072,0.012,0.11,0.023
		c0.202,0.058,0.41,0.142,0.621,0.247c0.054,0.027,0.106,0.06,0.16,0.089c0.165,0.091,0.33,0.194,0.494,0.312
		c0.061,0.043,0.121,0.085,0.181,0.132c0.211,0.165,0.42,0.343,0.62,0.548c2.104,2.154,2.604,2.951,4.552,6.91
		c1.069,2.196,1.162,2.678,0.535,2.891c-0.217,0.095-0.458,0.238-0.531,0.334c-0.243,0.36-2.988,0.872-5.226,0.978
		c-0.238,0.013-0.456,0.027-0.661,0.039c-0.082,0.005-0.169,0.009-0.245,0.013c-0.19,0.01-0.366,0.016-0.526,0.018
		c-0.03,0.001-0.069,0.004-0.099,0.004c-0.01,0-0.018-0.001-0.028-0.001c-0.038,0-0.072-0.003-0.108-0.003
		c-0.089-0.002-0.175-0.006-0.254-0.013c-0.041-0.004-0.079-0.009-0.117-0.014c-0.069-0.009-0.135-0.022-0.197-0.037
		c-0.035-0.008-0.069-0.017-0.102-0.027c-0.062-0.02-0.119-0.044-0.174-0.072c-0.023-0.012-0.049-0.021-0.071-0.035
		c-0.073-0.044-0.14-0.095-0.199-0.158c-0.008-0.008-0.014-0.02-0.022-0.029c-0.05-0.057-0.096-0.121-0.136-0.194
		c-0.016-0.028-0.029-0.061-0.044-0.092c-0.029-0.062-0.057-0.129-0.082-0.203c-0.013-0.04-0.026-0.083-0.038-0.126
		c-0.022-0.079-0.041-0.166-0.059-0.257c-0.009-0.047-0.019-0.093-0.027-0.143c-0.019-0.115-0.035-0.242-0.049-0.376
		c-0.004-0.037-0.009-0.069-0.013-0.108c-0.017-0.177-0.03-0.372-0.041-0.582c-0.003-0.059-0.005-0.127-0.008-0.189
		c-0.007-0.162-0.013-0.331-0.018-0.513c-0.002-0.091-0.004-0.19-0.006-0.286c-0.004-0.174-0.007-0.358-0.009-0.549
		c-0.001-0.108-0.003-0.22-0.004-0.334c-0.002-0.219-0.004-0.453-0.006-0.695c-0.003-0.415-0.006-0.853-0.01-1.338
		C41.391,9.105,41.444,8.408,41.783,8.049z M41.283,30.64c0.033-5.342-0.161-5.054,3.738-5.391c1.589-0.159,2.721-0.368,2.938-0.559
		c0.17-0.191,0.893-0.403,1.591-0.495c0.698-0.068,1.445-0.184,1.637-0.231c0.116-0.022,0.228-0.034,0.337-0.034
		c0.052,0,0.096,0.02,0.146,0.024c0.071,0.007,0.14,0.018,0.208,0.035c0.107,0.027,0.207,0.069,0.304,0.12
		c0.059,0.031,0.119,0.059,0.174,0.099c0.099,0.071,0.186,0.163,0.272,0.261c0.041,0.047,0.086,0.085,0.124,0.138
		c0.116,0.164,0.22,0.351,0.303,0.572c0.213,0.531,0.451,1.037,0.57,1.11c0.503,0.34,1.222,8.501,0.856,9.486
		c-0.122,0.336-0.51,0.719-0.823,0.837c-0.046,0.017-0.127,0.031-0.228,0.045c-0.032,0.005-0.076,0.008-0.113,0.013
		c-0.08,0.009-0.166,0.018-0.268,0.026c-0.056,0.004-0.118,0.008-0.18,0.012c-0.105,0.007-0.216,0.013-0.337,0.019
		c-0.072,0.004-0.144,0.007-0.221,0.01c-0.136,0.006-0.281,0.01-0.431,0.015c-0.077,0.003-0.15,0.005-0.231,0.007
		c-0.202,0.005-0.414,0.01-0.635,0.013c-0.036,0.001-0.069,0.002-0.106,0.002c-0.261,0.004-0.534,0.006-0.813,0.008
		c-0.083,0.001-0.168,0.001-0.251,0.001c-0.149,0.001-0.296,0.002-0.448,0.002c-0.067,0-0.135-0.001-0.203-0.001
		c-0.052,0-0.103,0-0.156-0.001c-0.277-0.001-0.556-0.002-0.836-0.005c-0.041,0-0.081-0.001-0.122-0.001
		c-0.283-0.003-0.565-0.006-0.846-0.011c-0.015,0-0.03-0.001-0.045-0.001c-0.287-0.005-0.568-0.011-0.846-0.018
		c-0.043-0.001-0.086-0.002-0.129-0.003c-0.263-0.007-0.518-0.014-0.766-0.023c-0.053-0.002-0.104-0.004-0.157-0.006
		c-0.247-0.009-0.487-0.018-0.713-0.029c-0.025-0.001-0.048-0.002-0.072-0.004c-0.215-0.01-0.418-0.021-0.608-0.033
		c-0.028-0.002-0.059-0.003-0.086-0.005c-0.19-0.012-0.361-0.025-0.518-0.039c-0.032-0.003-0.065-0.006-0.096-0.009
		c-0.15-0.014-0.282-0.029-0.392-0.044c-0.018-0.003-0.033-0.005-0.051-0.008c-0.109-0.017-0.2-0.034-0.258-0.052
		c-0.504-0.147-0.887-0.463-1.029-0.848C41.35,35.332,41.267,33.07,41.283,30.64z M48.772,64.373
		c-0.242,0.263-0.606,0.814-0.826,1.246c-0.219,0.408-0.777,1.174-1.237,1.677s-0.848,0.981-0.849,1.078
		c-0.001,0.096-0.605,0.646-1.355,1.243c-0.207,0.169-0.406,0.313-0.601,0.445c-0.059,0.04-0.116,0.074-0.174,0.11
		c-0.138,0.087-0.272,0.163-0.403,0.23c-0.058,0.029-0.116,0.059-0.172,0.085c-0.146,0.066-0.287,0.119-0.423,0.159
		c-0.029,0.009-0.059,0.022-0.087,0.029c-0.16,0.041-0.311,0.061-0.453,0.064c-0.011,0-0.024,0.005-0.034,0.005
		c-0.024,0-0.043-0.011-0.067-0.012c-0.116-0.006-0.225-0.025-0.327-0.058c-0.036-0.012-0.072-0.023-0.106-0.038
		c-0.122-0.054-0.236-0.122-0.333-0.22c-0.215-0.218-0.277-1.975-0.249-6.45c0.032-5.173,0.086-6.232,0.426-6.687
		c0.087-0.124,0.21-0.218,0.348-0.297c0.026-0.015,0.05-0.031,0.077-0.044c0.142-0.068,0.304-0.114,0.488-0.139
		c0.035-0.005,0.073-0.006,0.109-0.009c0.068-0.006,0.131-0.017,0.204-0.017c0.093,0,0.2,0.019,0.3,0.028
		c0.073,0.007,0.141,0.009,0.218,0.02c0.245,0.038,0.503,0.093,0.783,0.183c0.36,0.099,1.754,0.323,3.124,0.501
		c3.125,0.38,3.677,0.624,3.766,1.683C51.034,60.297,49.838,63.153,48.772,64.373z M51.094,53.196
		c-0.107-0.007-0.221-0.018-0.341-0.035c-0.064-0.009-0.131-0.019-0.2-0.03c-0.132-0.022-0.275-0.05-0.423-0.082
		c-0.067-0.014-0.132-0.027-0.202-0.043c-0.223-0.052-0.461-0.11-0.724-0.18c-0.768-0.221-2.595-0.473-4.062-0.555
		c-2.501-0.16-2.717-0.209-3.338-0.863l-0.669-0.678l0.097-4.09c0.096-3.873,0.122-4.114,0.654-4.616
		c0.532-0.526,0.677-0.549,6.282-0.587l5.75-0.037l0.525,0.677c0.382,0.508,0.476,0.893,0.4,1.518
		c-0.2,1.298-0.935,7.309-0.937,7.598c-0.001,0.144-0.365,0.647-0.801,1.126c-0.126,0.141-0.248,0.261-0.369,0.367
		c-0.038,0.034-0.079,0.06-0.117,0.09c-0.084,0.066-0.171,0.128-0.259,0.178c-0.048,0.027-0.099,0.05-0.148,0.072
		c-0.085,0.039-0.174,0.072-0.265,0.098c-0.055,0.015-0.112,0.029-0.17,0.04c-0.099,0.018-0.207,0.028-0.318,0.033
		c-0.042,0.002-0.075,0.012-0.119,0.012c-0.024,0-0.053-0.004-0.079-0.005C51.208,53.205,51.15,53.2,51.094,53.196z M60.01,63.793
		c-0.079,0.072-0.157,0.14-0.232,0.203c-0.19,0.159-0.35,0.269-0.441,0.302c-0.017,0.006-0.04,0.02-0.051,0.02l0,0
		c-0.008,0-0.027,0.009-0.044,0.015c-0.009,0.004-0.013,0.003-0.025,0.009c-0.089,0.041-0.254,0.139-0.461,0.27
		c-0.25,0.158-0.565,0.369-0.91,0.61c-0.121,0.085-0.245,0.172-0.371,0.263c-0.296,0.21-0.574,0.403-0.838,0.582
		c-0.089,0.061-0.168,0.112-0.254,0.169c-0.17,0.114-0.339,0.226-0.496,0.327c-0.09,0.058-0.173,0.108-0.258,0.162
		c-0.138,0.086-0.274,0.171-0.401,0.247c-0.083,0.05-0.161,0.094-0.24,0.139c-0.115,0.066-0.227,0.128-0.332,0.184
		c-0.074,0.039-0.144,0.075-0.213,0.11c-0.097,0.048-0.189,0.092-0.277,0.131c-0.063,0.028-0.124,0.054-0.182,0.077
		c-0.081,0.033-0.157,0.059-0.229,0.082c-0.051,0.016-0.102,0.033-0.149,0.045c-0.068,0.018-0.129,0.027-0.188,0.035
		c-0.038,0.005-0.079,0.013-0.114,0.014c-0.01,0-0.024,0.004-0.034,0.004c-0.07,0-0.132-0.009-0.187-0.026
		c-0.672-0.221-0.618-1.207,0.085-2.141c0.315-0.407,0.729-1.174,0.901-1.703c0.172-0.528,0.684-1.752,1.171-2.712
		c0.129-0.266,0.254-0.503,0.372-0.71c0.003-0.005,0.005-0.01,0.008-0.015c0.116-0.202,0.224-0.372,0.325-0.514
		c0.005-0.007,0.01-0.015,0.015-0.022c0.098-0.136,0.188-0.238,0.269-0.312c0.006-0.005,0.012-0.012,0.017-0.017
		c0.078-0.068,0.146-0.102,0.204-0.105c0.003,0,0.009-0.006,0.012-0.006c0.005,0,0.01,0,0.014,0.001
		c0.457,0.003,2.279,0.977,2.374,1.242c0.048,0.096,0.287,0.194,0.504,0.196C60.532,60.957,60.978,62.884,60.01,63.793z
		 M69.827,47.828c-0.245,0.696-0.54,1.681-0.615,2.21c-0.075,0.505-0.393,1.321-0.733,1.8c-0.34,0.479-0.949,1.679-1.339,2.663
		c-0.952,2.304-1.413,2.879-2.546,3.257c-0.141,0.048-0.282,0.085-0.426,0.11c-0.047,0.008-0.098,0.008-0.146,0.014
		c-0.098,0.012-0.196,0.025-0.299,0.025c-0.005,0-0.01,0.001-0.015,0.001c-0.129,0-0.264-0.012-0.404-0.03
		c-0.039-0.005-0.08-0.014-0.12-0.02c-0.115-0.019-0.234-0.044-0.359-0.076c-0.049-0.012-0.098-0.025-0.149-0.039
		c-0.153-0.044-0.313-0.096-0.484-0.159c-0.018-0.007-0.035-0.011-0.053-0.018c-0.191-0.072-0.397-0.159-0.614-0.256
		c-0.06-0.027-0.126-0.058-0.188-0.087c-0.17-0.078-0.349-0.164-0.536-0.257c-0.072-0.036-0.144-0.071-0.218-0.109
		c-0.257-0.131-0.524-0.27-0.816-0.428c-1.534-0.852-1.702-0.997-1.889-1.889c-0.14-0.747-0.063-1.468,0.331-2.934
		c0.295-1.081,0.522-2.716,0.528-3.654c0.002-0.275,0.013-0.534,0.03-0.766c0.011-0.153,0.024-0.297,0.041-0.419
		c0.008-0.059,0.017-0.11,0.026-0.159c0.003-0.015,0.005-0.034,0.008-0.047c0.005-0.027,0.011-0.046,0.017-0.07
		c0.007-0.03,0.014-0.064,0.021-0.088c0.004-0.012,0.007-0.017,0.011-0.027c0.01-0.028,0.02-0.056,0.03-0.073
		c0.006-0.009,0.012-0.009,0.018-0.014c0.009-0.008,0.017-0.021,0.026-0.021l0,0c0.009,0,0.018-0.013,0.028-0.022
		c0.006-0.006,0.012-0.005,0.019-0.015c0.008-0.013,0.016-0.036,0.024-0.055c0.008-0.017,0.015-0.029,0.023-0.052
		c0.001-0.003,0.002-0.009,0.004-0.013c0.015-0.044,0.029-0.094,0.044-0.154c0.005-0.023,0.011-0.052,0.016-0.077
		c0.071-0.332,0.135-0.842,0.167-1.416c0.081-1.467,0.18-1.9,0.64-2.33c0.533-0.526,0.725-0.549,5.32-0.593
		c0.359-0.004,0.682-0.007,0.99-0.01c0.071-0.001,0.145-0.001,0.214-0.002c0.295-0.002,0.571-0.003,0.822-0.003
		c0.013,0,0.03,0,0.043,0c0.029,0,0.05,0.001,0.078,0.001c0.223,0,0.428,0.001,0.617,0.003c0.037,0.001,0.078,0.001,0.114,0.001
		c0.2,0.003,0.38,0.007,0.545,0.012c0.037,0.001,0.072,0.003,0.107,0.004c0.16,0.006,0.309,0.013,0.437,0.021h0.002
		c0.129,0.009,0.237,0.02,0.337,0.032c0.022,0.003,0.044,0.005,0.064,0.008c0.093,0.013,0.175,0.027,0.246,0.042
		c0.011,0.003,0.02,0.005,0.03,0.008c0.062,0.015,0.117,0.032,0.164,0.05c0.008,0.003,0.018,0.006,0.026,0.01
		c0.049,0.021,0.089,0.043,0.125,0.068c0.008,0.006,0.015,0.011,0.023,0.017c0.034,0.026,0.064,0.053,0.089,0.083
		C70.75,42.42,70.439,46.148,69.827,47.828z"/>
</g>
<g id="Layer_4" display="none">
	<path display="inline" fill="#26CAD3" d="M38.971,0.001c-1.093-0.027-2.101,0.617-2.58,1.647L25.868,24.029L2.406,27.64
		c-1.054,0.156-1.932,0.925-2.265,1.983s-0.064,2.223,0.695,3.005l17.081,17.377l-4.06,24.557c-0.188,1.115,0.255,2.243,1.137,2.898
		c0.882,0.655,2.045,0.719,2.987,0.164l21.066-11.556l20.99,11.504c0.938,0.511,2.071,0.425,2.928-0.223
		c0.857-0.648,1.293-1.747,1.125-2.84l-4.043-24.461L77.1,32.558c0.805-0.779,1.102-1.978,0.759-3.069
		c-0.343-1.09-1.262-1.87-2.352-1.995l-23.524-3.473L41.478,1.666C41.016,0.654,40.042,0.007,38.971,0.001L38.971,0.001z"/>
</g>
<g id="Layer_5" display="none">
	<g display="inline">
		<path fill="#26CAD3" d="M35.172,33.103H9.517c-3.257,0-5.897,1.801-5.897,4.024v1.2v10.942V78h37.448V49.269V38.327v-1.2
			C41.069,34.905,38.429,33.103,35.172,33.103z"/>
		<circle fill="#26CAD3" cx="22.345" cy="16.138" r="13.552"/>
		<polygon fill="#26CAD3" points="62.586,11.439 54.871,11.439 54.871,3.724 48.784,3.724 48.784,11.439 41.069,11.439 
			41.069,17.526 48.784,17.526 48.784,25.241 54.871,25.241 54.871,17.526 62.586,17.526 		"/>
		<polygon fill="#26CAD3" points="74.379,5.193 69.186,5.193 69.186,0 65.089,0 65.089,5.193 59.897,5.193 59.897,9.29 65.089,9.29 
			65.089,14.483 69.186,14.483 69.186,9.29 74.379,9.29 		"/>
	</g>
</g>
<g id="Layer_6" display="none">
	<g display="inline">
		<g>
			<path fill="#26CAD3" d="M41.101,4.838c0.336,0.291,1.104,0.73,1.705,0.999s1.177,0.634,1.272,0.803s0.935,0.801,1.871,1.434
				c0.912,0.608,1.944,1.338,2.28,1.605c0.336,0.243,1.033,0.633,1.561,0.854c1.25,0.538,3.195,1.803,4.009,2.604
				c0.359,0.364,0.96,0.729,1.321,0.828c0.866,0.222,3.436,1.781,3.434,2.094c-0.001,0.145,0.359,0.412,0.768,0.583
				c1.082,0.489,2.883,1.585,3.794,2.313c1.032,0.802,2.208,1.532,3.962,2.435c2.475,1.293,4.683,2.728,5.81,3.82
				c0.168,0.146,0.84,0.535,1.513,0.853c1.202,0.562,1.751,1.312,1.195,1.647c-0.169,0.095-3.52,0.219-7.45,0.267
				c-10.655,0.151-64.909-0.328-65.389-0.572c-0.649-0.293-0.09-1.061,1.167-1.608c0.58-0.262,1.185-0.644,1.355-0.884
				c0.437-0.552,2.277-1.769,3.509-2.316c0.58-0.237,1.04-0.524,1.04-0.62c0.001-0.193,0.558-0.503,3.894-2.145
				c0.749-0.357,1.523-0.81,1.718-1.002c0.655-0.647,6.39-4.299,8.107-5.156c0.556-0.262,1.113-0.644,1.21-0.836
				c0.195-0.36,1.356-1.052,3.314-1.98c0.653-0.333,1.572-0.882,2.057-1.265c0.484-0.359,1.137-0.74,1.475-0.834
				c0.338-0.094,0.919-0.428,1.282-0.739c0.388-0.311,0.799-0.573,0.944-0.573c0.145,0.001,0.653-0.406,1.139-0.909
				C36.884,4.595,39.782,3.794,41.101,4.838z"/>
		</g>
		<g>
			<path fill="#26CAD3" d="M1.98,28.387c0.289,0.05,0.649,0.366,0.839,0.704c0.167,0.339,0.646,0.799,1.03,0.995
				c0.384,0.195,0.936,0.584,1.2,0.851c0.288,0.267,0.936,0.705,1.464,0.973c0.913,0.488,7.205,4.263,8.141,4.895
				c0.24,0.146,0.696,0.486,1.008,0.729c1.247,0.972,3,2.091,3.529,2.239c0.289,0.098,0.841,0.415,1.249,0.707
				c0.384,0.292,1.224,0.827,1.849,1.192c0.624,0.366,1.273,0.803,1.44,0.973c0.168,0.146,0.84,0.559,1.489,0.877
				c0.625,0.341,1.609,0.974,2.161,1.411c0.528,0.437,1.272,0.851,1.609,0.926c0.361,0.075,0.889,0.415,1.176,0.755
				c0.311,0.315,0.744,0.583,0.985,0.584c0.217,0.001,0.889,0.439,1.44,0.973c0.575,0.534,1.151,0.971,1.32,0.972
				c0.145,0.001,0.745,0.39,1.321,0.828c0.767,0.631,1.44,0.925,2.644,1.149c2.022,0.374,3.012,0.187,4.561-0.84
				c0.653-0.43,1.403-0.859,1.645-0.93s0.92-0.573,1.501-1.099c0.582-0.527,1.284-1.029,1.574-1.099
				c0.266-0.095,0.798-0.405,1.161-0.716c0.388-0.311,0.944-0.573,1.233-0.571c0.289,0.002,0.797-0.284,1.137-0.619
				c0.315-0.336,1.163-0.933,1.912-1.338c0.726-0.429,1.379-0.835,1.452-0.931c0.073-0.096,0.726-0.478,1.451-0.835
				s1.838-1.001,2.443-1.431c0.63-0.454,1.234-0.812,1.355-0.811c0.145,0.001,0.653-0.333,1.161-0.716
				c0.509-0.407,1.017-0.717,1.137-0.716c0.217,0.001,0.701-0.333,2.058-1.433c0.17-0.144,0.363-0.239,0.459-0.238
				s0.508-0.262,0.919-0.549c0.412-0.311,1.718-1.074,2.927-1.718c1.185-0.619,2.515-1.382,2.951-1.693
				c0.412-0.311,0.847-0.573,0.968-0.573c0.121,0.001,0.556-0.31,0.993-0.717c0.436-0.383,1.065-0.789,1.355-0.859
				c0.314-0.071,0.943-0.501,1.38-0.956c0.946-0.982,1.525-1.027,2.05-0.18c0.382,0.557,0.397,2.124,0.273,18.248
				c-0.088,10.34-0.258,18.438-0.41,19.545c-0.228,1.758-0.326,1.999-1.369,3.173c-0.607,0.719-1.189,1.294-1.285,1.294
				c-0.096-0.001-0.411,0.214-0.678,0.478c-0.291,0.263-1.378,0.691-2.416,0.949c-1.859,0.471-2.437,0.467-33.457,0.203
				c-30.49-0.236-31.622-0.267-32.776-0.708c-0.649-0.269-1.298-0.562-1.442-0.684c-0.12-0.097-0.72-0.535-1.296-0.972
				c-1.823-1.385-2.348-2.256-2.624-4.379c-0.346-2.533-0.134-36.903,0.208-37.528C0.701,28.572,1.33,28.286,1.98,28.387z"/>
		</g>
	</g>
</g>
<g id="Layer_7" display="none">
	<g display="inline">
		<path fill="#26CAD3" d="M54.644,0.231c1.859,0.216,4.189,1.092,4.82,1.822c0.315,0.342,0.744,0.776,0.969,0.936
			c0.61,0.457,1.553,1.983,2.044,3.301c0.379,1.069,0.392,2.611,0.279,31.916c-0.121,26.9-0.169,31.051-0.496,32.636
			c-0.328,1.699-0.627,2.355-2,4.297c-0.664,0.926-2.188,1.71-4.505,2.286L53.37,78l-14.561-0.09
			c-13.745-0.085-14.675-0.113-16.555-0.556c-2.016-0.466-3.418-1.064-4.276-1.773c-0.857-0.731-2.317-3.122-2.605-4.28
			c-0.221-0.909-0.249-7.441-0.092-32.776l0.195-31.64l0.506-1.154c0.897-2.081,2.565-4.044,3.953-4.648
			c2.502-1.119,2.502-1.119,18.47-1.066C46.661,0.068,53.964,0.159,54.644,0.231z M25.005,6.444
			c-1.843,1.009-1.695-1.054-1.869,27.252c-0.149,24.178-0.133,25.199,0.272,25.814c0.921,1.435,0.377,1.363,15.438,1.479
			l13.722,0.108l0.843-0.517c0.524-0.314,0.935-0.788,1.074-1.241c0.139-0.475,0.264-9.616,0.341-25.901
			C54.93,5.631,55.01,7.287,53.473,6.506c-0.723-0.39-1.88-0.42-14.173-0.496L25.916,5.928L25.005,6.444z M36.884,66.285
			c-0.387,0.179-0.956,0.516-1.32,0.763c-2.46,1.709-1.377,6.365,1.702,7.246c1.2,0.348,3.107,0.087,4.041-0.52
			c1.207-0.809,2.101-2.323,2.086-3.548C43.367,66.915,39.887,64.807,36.884,66.285z"/>
	</g>
</g>
<g id="Layer_8" display="none">
	<path display="inline" fill="#26CAD3" d="M70.241,64.107c-0.19-0.41-0.22-0.849-0.132-1.259l0.015-0.044v-0.029l0.015-0.073
		l0.015-0.044l0.015-0.044l0.015-0.044l0.015-0.044l0.015-0.029v-0.015l0.015-0.029v-0.015c0.059-0.117,0.132-0.234,0.22-0.351
		c2.445-3.338,4.333-7.027,5.607-10.907C77.341,47.271,78,43.172,78,39c0-10.775-4.363-20.525-11.419-27.581S49.775,0,39,0
		S18.475,4.363,11.419,11.419S0,28.225,0,39s4.363,20.525,11.419,27.581S28.225,78,39,78c4.143,0,8.242-0.659,12.122-1.933
		c3.865-1.259,7.539-3.133,10.877-5.563c0.102-0.073,0.205-0.147,0.322-0.205h0.015l0.029-0.015h0.015l0.029-0.015h0.015
		l0.029-0.015c0.073-0.029,0.146-0.058,0.22-0.073h0.015h0.029h0.015h0.029l0.044-0.015h0.015h0.044h0.029h0.029h0.029
		c0.366-0.044,0.747,0,1.098,0.175c0.029,0.015,0.059,0.029,0.088,0.044L76.082,76.8l-5.826-12.649L70.241,64.107z"/>
</g>
<g id="Layer_9" display="none">
	<g display="inline">
		
			<rect x="19.95" y="12.353" fill="none" stroke="#26CAD3" stroke-width="3.8069" stroke-linecap="round" stroke-linejoin="round" width="27.167" height="15.821"/>
		
			<rect x="19.95" y="59.679" fill="none" stroke="#26CAD3" stroke-width="3.8069" stroke-linecap="round" stroke-linejoin="round" width="27.167" height="15.821"/>
		
			<rect x="19.95" y="36.016" fill="none" stroke="#26CAD3" stroke-width="3.8069" stroke-linecap="round" stroke-linejoin="round" width="27.167" height="15.821"/>
		<path fill="none" stroke="#26CAD3" stroke-width="6.636" stroke-miterlimit="1" d="M25.823,16.729l9.922,7.623L57.36,2.5"/>
		<path fill="none" stroke="#26CAD3" stroke-width="6.636" stroke-miterlimit="1" d="M26.513,40.056l9.922,7.623L58.05,25.827"/>
	</g>
</g>
<g id="Layer_10" display="none">
	<g display="inline">
		<g>
			<path fill="#26CAD3" stroke="#26CAD3" stroke-width="1.3532" stroke-miterlimit="10" d="M35.58,67.471
				c-3.243-0.297-6.2-1.085-8.869-2.38c-2.665-1.292-4.967-2.934-6.895-4.932l2.13-3.278c0.187-0.293,0.457-0.531,0.804-0.718
				s0.71-0.281,1.085-0.281c0.511,0,1.089,0.254,1.732,0.761c0.644,0.503,1.432,1.085,2.372,1.736
				c0.936,0.652,2.056,1.284,3.36,1.896c1.299,0.617,2.86,1.026,4.682,1.241l1.491-21.219c-1.877-0.558-3.722-1.194-5.533-1.9
				c-1.807-0.71-3.43-1.631-4.866-2.767c-1.432-1.132-2.587-2.564-3.457-4.284c-0.874-1.725-1.307-3.879-1.307-6.469
				c0-1.951,0.382-3.851,1.147-5.709c0.761-1.857,1.873-3.504,3.336-4.948s3.266-2.622,5.408-3.547
				c2.146-0.921,4.612-1.381,7.402-1.381l0.402-5.833c0.055-0.503,0.254-0.96,0.605-1.358C40.957,1.703,41.425,1.5,42.018,1.5h2.653
				L44.11,9.413c2.813,0.347,5.24,1.065,7.277,2.158s3.863,2.411,5.471,3.957l-1.729,2.634c-0.538,0.8-1.155,1.202-1.85,1.202
				c-0.378,0-0.839-0.168-1.389-0.499c-0.55-0.336-1.214-0.722-1.99-1.159c-0.776-0.441-1.678-0.882-2.696-1.319
				c-1.018-0.441-2.185-0.753-3.496-0.94l-1.331,19.338c1.931,0.589,3.836,1.233,5.713,1.928s3.566,1.588,5.069,2.685
				c1.502,1.096,2.716,2.466,3.641,4.113c0.925,1.643,1.385,3.695,1.385,6.153c0,2.408-0.402,4.667-1.206,6.778
				c-0.804,2.115-1.978,3.972-3.52,5.576s-3.434,2.907-5.67,3.91c-2.24,1.003-4.796,1.502-7.663,1.502l-0.484,7.152
				c-0.051,0.507-0.261,0.952-0.62,1.338c-0.363,0.386-0.827,0.581-1.389,0.581H34.98L35.58,67.471z M29.064,24.198
				c0,1.276,0.23,2.392,0.687,3.336c0.453,0.944,1.085,1.775,1.889,2.497c0.804,0.718,1.744,1.346,2.817,1.877
				c1.069,0.535,2.236,1.015,3.496,1.44l1.21-18.023c-1.744,0.16-3.254,0.507-4.526,1.042c-1.272,0.531-2.318,1.198-3.137,1.998
				c-0.819,0.796-1.428,1.697-1.83,2.696C29.267,22.06,29.064,23.105,29.064,24.198z M51.387,50.727
				c0-1.331-0.246-2.478-0.741-3.438c-0.499-0.956-1.174-1.783-2.033-2.474c-0.858-0.695-1.865-1.292-3.016-1.799
				c-1.155-0.507-2.388-0.972-3.699-1.401l-1.37,19.9c1.744-0.16,3.293-0.538,4.647-1.139s2.493-1.366,3.418-2.298
				c0.925-0.933,1.623-2.017,2.091-3.254C51.153,53.584,51.387,52.218,51.387,50.727z"/>
		</g>
	</g>
</g>
<g>
	<g>
		<path fill="none" stroke="#26CAD3" stroke-width="3" d="M57.809,2.378c0.389,0.113,1.095,0.406,1.518,0.652
			c0.441,0.268,0.882,0.47,0.971,0.471c0.088,0.001,0.353,0.202,0.581,0.468c0.229,0.267,0.739,0.756,1.127,1.091
			c1.585,1.425,3.094,3.866,3.474,5.657c0.156,0.73,0.417,1.46,0.576,1.594c1.232,1.158,1.191,13.08-0.053,14.263
			c-0.16,0.153-0.393,0.836-0.538,1.519c-0.145,0.705-0.521,1.652-0.824,2.135c-0.303,0.461-0.553,0.923-0.553,1.011
			c-0.002,0.331-1.195,1.934-1.781,2.371c-0.337,0.262-0.924,0.81-1.297,1.204c-0.534,0.614-0.659,0.9-0.662,1.563
			c-0.005,0.971,0.537,2.322,0.961,2.414c0.177,0.046,0.723,0.425,1.216,0.826c1.18,0.959,3.385,2.344,3.703,2.347
			c0.141,0.001,0.335,0.135,0.405,0.29c0.07,0.155,0.81,0.779,1.638,1.382c1.939,1.406,3.119,2.519,3.821,3.584
			c1.527,2.33,2.124,3.35,2.228,3.793c0.069,0.288,0.244,0.664,0.403,0.842c0.633,0.822,1.495,5.288,1.5,7.96
			c0.009,1.722,0.222,1.68-7.738,1.552l-6.863-0.119l-1.107-1.444c-0.597-0.799-1.177-1.599-1.265-1.776
			c-0.262-0.576-2.113-2.025-4.546-3.568c-2.486-1.565-2.398-1.52-3.243-2.365c-0.81-0.823-0.736-1.419,0.333-2.912
			c0.481-0.681,0.891-1.34,0.892-1.472c0.001-0.155,0.162-0.507,0.375-0.792c0.659-0.944,1.897-4.445,2.315-6.584
			c0.345-1.764,0.42-2.735,0.437-6.068c0.018-3.577-0.032-4.173-0.43-6.075c-0.484-2.3-1.477-5.332-2.039-6.198
			c-0.193-0.311-0.596-1.064-0.894-1.663c-0.718-1.463-2.546-3.795-3.322-4.221c-1.499-0.851-2.275-1.453-2.696-2.118
			c-0.544-0.799-0.561-1.064-0.218-2.43c0.595-2.314,1.88-4.578,3.533-6.199c0.622-0.591,1.191-1.205,1.298-1.337
			c0.374-0.527,2.36-1.461,3.582-1.672C56.059,2.122,56.749,2.127,57.809,2.378z"/>
	</g>
	<g>
		<path fill="none" stroke="#26CAD3" stroke-width="3" d="M23.755,2.177c0.972,0.184,3.32,1.196,3.513,1.506
			c0.053,0.089,0.475,0.534,0.968,0.979c1.902,1.737,3.498,4.421,4.052,6.854c0.485,2.057-0.014,2.782-3.225,4.678
			c-0.497,0.283-1.707,1.775-3.008,3.664c-1.407,2.02-2.934,6.667-3.556,10.769c-0.22,1.522-0.144,7.683,0.118,8.281
			c0.105,0.244,0.313,1.195,0.467,2.123c0.36,2.299,2.038,6.463,3.233,8.062c0.492,0.666,0.895,1.398,0.894,1.663
			c-0.002,0.42-0.501,1.144-1.265,1.867c-0.142,0.131-1.402,0.961-2.822,1.833c-3.176,1.963-3.727,2.444-5.063,4.355
			c-1.657,2.35-1.179,2.243-8.82,2.162c-3.626-0.05-6.774-0.14-7.021-0.231c-0.406-0.136-0.441-0.268-0.418-1.372
			c0.025-1.501,0.502-4.876,0.862-6.176c0.432-1.498,1.22-3.501,1.379-3.5c0.088,0.001,0.552-0.68,1.033-1.493
			c0.803-1.363,2.991-3.995,3.328-3.993c0.177,0.001,2.982-2.008,3.107-2.228c0.054-0.088,0.586-0.415,1.153-0.72
			c2.075-1.132,4.667-3.033,4.971-3.693c0.411-0.836,0.4-2.293-0.022-2.76c-0.493-0.534-1.32-1.247-1.902-1.649
			c-0.3-0.179-0.792-0.889-1.142-1.643c-0.333-0.709-0.788-1.53-0.999-1.84c-0.211-0.289-0.438-0.842-0.507-1.218
			c-0.069-0.354-0.156-0.708-0.226-0.775c-0.141-0.156-0.803-2.082-1.099-3.21c-0.364-1.46-0.274-8.878,0.142-10.862
			c0.199-0.882,0.451-1.697,0.593-1.85c0.142-0.131,0.25-0.44,0.251-0.661c0.001-0.243,0.055-0.419,0.144-0.418
			c0.071,0.001,0.232-0.418,0.358-0.947c0.324-1.234,1.412-2.926,3.03-4.724c1.387-1.535,2.487-2.211,4.56-2.791
			C21.988,1.899,22.306,1.901,23.755,2.177z"/>
	</g>
	<g>
		<path fill="none" stroke="#26CAD3" stroke-width="3" d="M41.662,17.508c1.484,0.343,2.947,1.37,4.266,3.036
			c1.231,1.533,2.038,2.886,2.263,3.793c0.069,0.266,0.227,0.576,0.368,0.731c0.229,0.245,0.42,0.886,1.217,4.205
			c0.156,0.664,0.383,1.284,0.488,1.373c0.247,0.178,0.232,6.78-0.017,6.977c-0.213,0.153-0.267,0.395-0.793,2.864
			c-0.47,2.138-2.099,5.923-2.845,6.558c-0.195,0.175-0.374,0.461-0.375,0.638c-0.001,0.177-0.339,0.549-0.765,0.855
			c-1.26,0.918-1.813,1.775-1.818,2.834c-0.003,0.64,0.118,1.149,0.399,1.593c0.527,0.821,2.041,2.202,2.853,2.539
			c0.335,0.157,1.288,0.716,2.116,1.275c0.829,0.536,1.852,1.184,2.275,1.453c0.441,0.268,0.952,0.67,1.145,0.914
			c0.211,0.245,0.616,0.623,0.933,0.868c0.3,0.245,0.599,0.579,0.651,0.756c0.052,0.177,0.211,0.333,0.352,0.334
			c0.159,0.001,0.705,0.557,1.25,1.224c1.002,1.266,2.157,3.836,2.537,5.606c0.104,0.531,0.348,1.151,0.541,1.395
			c0.281,0.355,0.385,0.93,0.517,2.698c0.282,3.711,0.21,4.02-0.958,4.188c-0.425,0.063-9.375,0.016-19.9-0.065
			c-18.962-0.19-19.156-0.192-19.508-0.636c-0.404-0.533-0.438-0.931-0.16-3.424c0.205-2.052,0.693-4.19,0.923-4.188
			c0.088,0.001,0.16-0.153,0.161-0.33c0.003-0.618,1.255-3.435,2.093-4.687c0.463-0.681,1.513-1.865,2.348-2.631
			c0.835-0.766,1.564-1.467,1.617-1.555c0.054-0.11,0.409-0.372,0.799-0.612c0.39-0.24,1.384-0.873,2.218-1.418
			c0.834-0.546,1.828-1.112,2.217-1.264c0.39-0.152,0.94-0.501,1.242-0.763c0.284-0.263,0.675-0.547,0.834-0.612
			c0.496-0.217,1.265-1.911,1.288-2.816c0.022-0.927-0.645-2.014-1.509-2.485c-0.459-0.268-0.687-0.601-2.336-3.418
			c-0.877-1.486-1.592-3.479-1.762-4.915c-0.068-0.508-0.172-0.907-0.243-0.907c-0.071-0.001-0.28-0.62-0.453-1.394
			c-0.45-1.947-0.445-6.671,0.023-8.169c0.18-0.573,0.412-1.035,0.5-1.034c0.088,0.001,0.16-0.197,0.161-0.44
			c0.004-0.729,0.813-3.372,1.33-4.317c0.25-0.462,0.66-1.209,0.91-1.671c0.232-0.44,0.624-1.033,0.856-1.318
			c0.231-0.285,0.463-0.615,0.499-0.747c0.144-0.44,1.973-1.883,3.037-2.427c0.94-0.456,1.453-0.563,3.24-0.615
			C39.859,17.34,41.203,17.395,41.662,17.508z"/>
	</g>
</g>
</svg>
