<?xml version="1.0" encoding="utf-8"?>
<!-- Generator: Adobe Illustrator 17.0.0, SVG Export Plug-In . SVG Version: 6.00 Build 0)  -->
<!DOCTYPE svg PUBLIC "-//W3C//DTD SVG 1.1//EN" "http://www.w3.org/Graphics/SVG/1.1/DTD/svg11.dtd">
<svg version="1.1" id="Layer_1" xmlns="http://www.w3.org/2000/svg" xmlns:xlink="http://www.w3.org/1999/xlink" x="0px" y="0px"
	 width="198.667px" height="90px" viewBox="-54.167 0 198.667 90" enable-background="new -54.167 0 198.667 90"
	 xml:space="preserve">
<g id="Layer_1_1_" display="none">
	<path display="inline" fill="#26CAD3" d="M19.414,0h51.171c5.346,0,10.2,2.186,13.714,5.7s5.7,8.379,5.7,13.714v51.171
		c0,5.346-2.186,10.2-5.7,13.714s-8.379,5.7-13.714,5.7H19.414c-5.346,0-10.2-2.186-13.714-5.7C2.186,80.786,0,75.921,0,70.586
		V19.414C0,14.068,2.186,9.214,5.7,5.7S14.079,0,19.414,0L19.414,0z M29.925,46.832c-1.007,0-1.832-0.814-1.832-1.832
		c0-1.007,0.814-1.832,1.832-1.832h13.254V29.914c0-1.007,0.814-1.832,1.832-1.832c1.007,0,1.832,0.814,1.832,1.832v13.254h13.254
		c1.007,0,1.832,0.814,1.832,1.832c0,1.007-0.814,1.832-1.832,1.832H46.843v13.254c0,1.007-0.814,1.832-1.832,1.832
		c-1.007,0-1.832-0.814-1.832-1.832V46.832H29.925z M70.586,3.654H19.414c-4.329,0-8.271,1.779-11.132,4.629
		c-2.861,2.861-4.629,6.793-4.629,11.132v51.171c0,4.329,1.779,8.271,4.629,11.132c2.861,2.861,6.804,4.629,11.132,4.629h51.171
		c4.329,0,8.271-1.779,11.132-4.629c2.861-2.861,4.629-6.804,4.629-11.132V19.414c0-4.339-1.779-8.271-4.629-11.132
		C78.857,5.421,74.914,3.654,70.586,3.654L70.586,3.654z"/>
</g>
<g id="Layer_2" display="none">
	<path display="inline" fill="#26CAD3" d="M3.655,86.198h28.139V65.449c0-3.779,1.482-7.21,3.878-9.702s5.695-4.034,9.316-4.034
		c3.633,0,6.932,1.542,9.328,4.034s3.878,5.923,3.878,9.702v20.749h28.139V46.01L44.242,4.536L3.655,45.987v40.199V86.198z
		 M33.622,90H1.828C0.814,90,0,89.154,0,88.099v-42.9h0.011c0-0.487,0.178-0.985,0.546-1.356l42.37-43.271
		c0.691-0.742,1.839-0.765,2.563-0.046l43.841,43.202C89.744,44.074,90,44.607,90,45.199v42.9C90,89.154,89.186,90,88.172,90H56.378
		c-1.014,0-1.828-0.846-1.828-1.901v-22.65c0-2.724-1.07-5.205-2.808-7.013C50.015,56.64,47.63,55.515,45,55.515
		c-2.619,0-5.004,1.113-6.742,2.921c-1.727,1.797-2.808,4.277-2.808,7.013v22.65C35.449,89.154,34.625,90,33.622,90L33.622,90z"/>
</g>
<g id="Layer_3" display="none">
	<path display="inline" fill="#26CAD3" d="M42.253,0c11.666,0,22.237,4.73,29.88,12.373s12.373,18.213,12.373,29.88
		c0,10.974-4.182,20.982-11.046,28.495l15.978,15.978c0.75,0.75,0.75,1.961,0,2.711s-1.961,0.75-2.711,0L70.748,73.459
		c-7.513,6.864-17.507,11.046-28.495,11.046c-11.666,0-22.237-4.73-29.88-12.373S0,53.919,0,42.253s4.73-22.237,12.373-29.88
		S30.586,0,42.253,0L42.253,0z M69.422,15.099C62.471,8.148,52.867,3.85,42.253,3.85S22.035,8.148,15.084,15.099
		S3.836,31.654,3.836,42.267s4.297,20.218,11.248,27.169s16.555,11.248,27.169,11.248s20.218-4.297,27.169-11.248
		c6.951-6.951,11.248-16.555,11.248-27.169S76.372,22.049,69.422,15.099z"/>
</g>
<g id="Layer_4" display="none">
	<path display="inline" fill="#26CAD3" d="M7.725,0h74.536c1.116,0,2.019,0.903,2.019,2.019v85.96c0,1.116-0.903,2.019-2.019,2.019
		c-0.558,0-1.076-0.226-1.435-0.598L45,58.462L9.054,89.507c-0.837,0.731-2.112,0.638-2.843-0.199
		c-0.332-0.385-0.492-0.85-0.492-1.315l0,0V2.032c0-1.116,0.903-2.019,2.019-2.019L7.725,0z M44.987,4.038H9.745v79.531
		l33.914-29.291c0.744-0.651,1.873-0.677,2.657-0.013l33.927,29.291V4.025H45L44.987,4.038z"/>
</g>
<g id="Layer_5" display="none">
	<path display="inline" fill="#26CAD3" d="M55.828,3.107c6.017,0,11.463,2.445,15.415,6.383c3.939,3.939,6.383,9.399,6.383,15.402
		c0,6.017-2.431,11.463-6.383,15.415c-3.939,3.939-9.399,6.383-15.415,6.383s-11.463-2.445-15.415-6.383
		c-3.939-3.939-6.383-9.399-6.383-15.415s2.445-11.463,6.383-15.402C44.352,5.538,49.812,3.107,55.828,3.107z M1.698,42.399
		C0.761,42.399,0,41.639,0,40.701c0-0.937,0.761-1.698,1.698-1.698H14.03V26.671c0-0.937,0.761-1.698,1.698-1.698
		s1.698,0.761,1.698,1.698v12.332h12.332c0.937,0,1.698,0.761,1.698,1.698c0,0.937-0.761,1.698-1.698,1.698H17.425v12.332
		c0,0.937-0.761,1.698-1.698,1.698c-0.937,0-1.698-0.761-1.698-1.698V42.399H1.698z M72.887,51.893
		c-0.774-0.516-0.991-1.575-0.462-2.35c0.516-0.774,1.575-0.991,2.35-0.462c4.659,3.124,8.529,7.375,11.191,12.346
		C88.533,66.221,90,71.681,90,77.467v7.728c0,0.937-0.761,1.698-1.698,1.698h-64.92c-0.937,0-1.698-0.761-1.698-1.698v-7.728
		c0-5.813,1.48-11.3,4.075-16.122c2.689-4.984,6.587-9.236,11.286-12.359c0.788-0.516,1.834-0.299,2.35,0.475
		c0.516,0.788,0.299,1.834-0.475,2.35c-4.238,2.811-7.742,6.641-10.173,11.137c-2.336,4.319-3.653,9.263-3.653,14.505v6.03h61.512
		v-6.03c0-5.215-1.317-10.146-3.626-14.451c-2.404-4.482-5.881-8.298-10.091-11.123L72.887,51.893z M68.84,11.908
		c-3.328-3.328-7.932-5.392-12.998-5.392c-5.08,0-9.684,2.064-13.011,5.392c-3.328,3.328-5.392,7.932-5.392,13.011
		s2.064,9.684,5.392,13.011c3.328,3.328,7.932,5.392,13.011,5.392c5.08,0,9.684-2.064,12.998-5.392
		c3.328-3.328,5.392-7.932,5.392-13.011S72.167,15.236,68.84,11.908z"/>
</g>
<g id="Layer_7" display="none">
	<g display="inline">
		<g>
			<g>
				<path fill="#26CAD3" d="M42.996,61.681c-1.9-0.174-3.633-0.636-5.197-1.395c-1.561-0.757-2.91-1.719-4.04-2.89l1.248-1.92
					c0.11-0.171,0.267-0.311,0.471-0.421c0.203-0.11,0.416-0.165,0.636-0.165c0.299,0,0.638,0.149,1.015,0.446
					c0.377,0.295,0.839,0.636,1.39,1.017c0.549,0.382,1.205,0.752,1.968,1.111c0.761,0.361,1.676,0.601,2.743,0.727l0.873-12.433
					c-1.1-0.327-2.181-0.7-3.242-1.113c-1.059-0.416-2.01-0.956-2.851-1.621c-0.839-0.663-1.516-1.502-2.026-2.51
					c-0.512-1.011-0.766-2.273-0.766-3.791c0-1.143,0.224-2.257,0.672-3.345c0.446-1.088,1.097-2.053,1.955-2.899
					c0.857-0.846,1.914-1.536,3.169-2.078c1.257-0.54,2.702-0.809,4.337-0.809l0.235-3.418c0.032-0.295,0.149-0.562,0.354-0.796
					c0.203-0.233,0.478-0.352,0.825-0.352h1.555l-0.329,4.636c1.648,0.203,3.07,0.624,4.264,1.264
					c1.193,0.64,2.263,1.413,3.205,2.318l-1.01,1.546c-0.316,0.469-0.677,0.704-1.084,0.704c-0.222,0-0.492-0.098-0.814-0.293
					c-0.322-0.197-0.711-0.423-1.166-0.679c-0.455-0.258-0.983-0.517-1.58-0.773c-0.597-0.258-1.28-0.441-2.048-0.551l-0.78,11.331
					c1.132,0.345,2.247,0.722,3.347,1.129s2.09,0.93,2.97,1.573c0.88,0.642,1.591,1.445,2.133,2.41
					c0.542,0.963,0.812,2.165,0.812,3.605c0,1.411-0.235,2.734-0.706,3.971c-0.471,1.239-1.159,2.327-2.062,3.267
					s-2.012,1.703-3.322,2.291c-1.312,0.588-2.81,0.88-4.49,0.88l-0.283,4.191c-0.03,0.297-0.153,0.558-0.364,0.784
					c-0.213,0.226-0.485,0.341-0.814,0.341h-1.555L42.996,61.681z M39.178,36.327c0,0.748,0.135,1.401,0.402,1.955
					c0.265,0.553,0.636,1.04,1.107,1.463c0.471,0.421,1.022,0.789,1.651,1.1c0.626,0.313,1.31,0.594,2.048,0.844l0.709-10.56
					c-1.022,0.094-1.907,0.297-2.652,0.61c-0.745,0.311-1.358,0.702-1.838,1.171c-0.48,0.466-0.837,0.995-1.072,1.58
					C39.297,35.074,39.178,35.687,39.178,36.327z M52.258,51.871c0-0.78-0.144-1.452-0.434-2.014
					c-0.293-0.56-0.688-1.045-1.191-1.449c-0.503-0.407-1.093-0.757-1.767-1.054c-0.677-0.297-1.399-0.569-2.167-0.821l-0.802,11.66
					c1.022-0.094,1.93-0.316,2.723-0.668c0.793-0.352,1.461-0.8,2.003-1.347c0.542-0.546,0.951-1.182,1.225-1.907
					C52.12,53.545,52.258,52.745,52.258,51.871z"/>
			</g>
		</g>
		<path fill="#26CAD3" d="M45,0C20.147,0,0,20.147,0,45s20.147,45,45,45s45-20.147,45-45S69.853,0,45,0z M45,86.463
			C22.101,86.463,3.537,67.899,3.537,45S22.101,3.537,45,3.537S86.463,22.101,86.463,45S67.899,86.463,45,86.463z"/>
	</g>
</g>
<g>
	<g>
		<path fill="#26CAD3" d="M44.275,47.943c-1.161,0-2.112-0.939-2.112-2.112c0-1.161,0.939-2.112,2.112-2.112h15.281V28.438
			c0-1.161,0.939-2.112,2.112-2.112c1.161,0,2.112,0.939,2.112,2.112v15.281h15.281c1.161,0,2.112,0.939,2.112,2.112
			c0,1.161-0.939,2.112-2.112,2.112H63.78v15.281c0,1.161-0.939,2.112-2.112,2.112c-1.161,0-2.112-0.939-2.112-2.112V47.943H44.275z
			"/>
		<path fill="#26CAD3" d="M28.329,81.423l-0.014-0.028l-7.334-15.909c2.261-3.226,4.012-6.755,5.225-10.464
			c1.323-4.039,2.013-8.299,2.013-12.6c0-11.153-4.522-21.258-11.828-28.565C9.084,6.552-1.022,2.03-12.174,2.03
			c-11.153,0-21.258,4.522-28.565,11.828c-7.307,7.307-11.829,17.412-11.829,28.565c0,11.153,4.522,21.258,11.829,28.565
			c7.307,7.307,17.412,11.828,28.565,11.828c4.287,0,8.52-0.676,12.545-1.999c3.653-1.199,7.141-2.923,10.353-5.128L10.71,75.73
			l15.054,8.079c0.041,0.028,0.097,0.055,0.138,0.069l0.028,0.014l0.041,0.014l0.014,0.014l0.028,0.014
			c0.083,0.028,0.165,0.055,0.248,0.069h0.028h0.014h0.028h0.014h0.041h0.041h0.014h0.041h0.014h0.041h0.014h0.041h0.014h0.041
			h0.041c0.248,0,0.496-0.055,0.731-0.152l0.028-0.014l0.041-0.014l0.041-0.014l0.041-0.014l0.041-0.028l0.041-0.028
			c0.055-0.028,0.11-0.055,0.152-0.097h0.014l0.028-0.014l0.014-0.014l0.028-0.014c0.165-0.152,0.289-0.317,0.4-0.496l0.014-0.041
			c0.014-0.041,0.041-0.083,0.055-0.124l0.014-0.028l0.014-0.041l0.014-0.014l0.014-0.028c0.028-0.083,0.055-0.165,0.069-0.248
			v-0.028V82.54v-0.028v-0.014v-0.041v-0.041v-0.014v-0.041v-0.014v-0.041v-0.014v-0.041v-0.014v-0.041v-0.041
			C28.481,81.906,28.425,81.658,28.329,81.423z M11.469,71.966c-0.028-0.014-0.055-0.028-0.083-0.041
			c-0.331-0.165-0.689-0.207-1.034-0.165h-0.028h-0.028h-0.028h-0.041h-0.014l-0.041,0.014h-0.028h-0.014h-0.028H10.09
			c-0.069,0.014-0.138,0.041-0.207,0.069l-0.028,0.014H9.842L9.814,71.87H9.801l-0.028,0.014H9.759
			c-0.11,0.055-0.207,0.124-0.303,0.193c-3.143,2.288-6.604,4.053-10.243,5.239c-3.653,1.199-7.513,1.82-11.415,1.82
			c-10.146,0-19.328-4.108-25.973-10.753c-6.645-6.645-10.753-15.826-10.753-25.973s4.108-19.328,10.753-25.973
			C-31.53,9.791-22.348,5.683-12.202,5.683S7.126,9.791,13.771,16.436c6.645,6.645,10.753,15.826,10.753,25.973
			c0,3.929-0.62,7.789-1.833,11.47c-1.199,3.653-2.978,7.127-5.28,10.271c-0.083,0.11-0.152,0.221-0.207,0.331v0.014l-0.014,0.028
			v0.014l-0.014,0.028l-0.014,0.041l-0.014,0.041l-0.014,0.041l-0.014,0.041l-0.014,0.069v0.028l-0.014,0.041
			c-0.083,0.386-0.055,0.8,0.124,1.186l0.014,0.041l5.487,11.911L11.469,71.966z"/>
		<path fill="none" stroke="#26CAD3" stroke-width="3.5" stroke-miterlimit="10" d="M121.454,38.323l-0.021-0.008
			c-6.439-2.11-9.927-3.963-9.927-7.7c0-2.114,1.009-3.547,1.858-4.379c1.399-1.374,3.396-2.139,5.447-2.106h0.412
			c0.332,0.008,0.66,0.029,0.988,0.067c1.82,0.219,3.526,1.009,4.69,2.45c0.874,1.076,1.248,2.223,1.45,3.459
			c0.143,0.882,0.908,1.525,1.799,1.525h8.641c1.072,0,1.925-0.912,1.824-1.975c-0.723-7.75-5.409-13.789-12.251-16.324V4.041
			c0-0.92-0.753-1.673-1.673-1.673h-8.734c-0.92,0-1.673,0.752-1.673,1.673v8.515c-8.473,1.98-14.781,9.322-14.781,18.059
			c0,13.163,11.797,17.097,18.139,19.211l0.054,0.017c4.237,1.324,11.343,4.388,11.343,10.019c0,4.728-3.114,7.552-8.33,7.552
			c-1.475,0-3.572-0.244-5.19-1.395l-0.193-0.13c-1.954-1.169-3.114-2.934-3.534-5.153c-0.047-0.244-0.084-0.488-0.118-0.731
			c-0.118-0.908-0.891-1.584-1.807-1.584h-8.464c-1.063,0-1.904,0.903-1.824,1.963c0.71,9.15,6.342,15.971,14.705,18.282v8.956
			c0,0.92,0.753,1.673,1.673,1.673h8.734c0.92,0,1.673-0.752,1.673-1.673v-8.754c3.404-0.824,6.447-2.417,8.863-4.673
			c3.816-3.56,5.918-8.649,5.918-14.332C141.144,49.973,134.52,42.723,121.454,38.323z"/>
	</g>
</g>
</svg>
