<?xml version="1.0" encoding="utf-8"?>
<!-- Generator: Adobe Illustrator 17.0.0, SVG Export Plug-In . SVG Version: 6.00 Build 0)  -->
<!DOCTYPE svg PUBLIC "-//W3C//DTD SVG 1.1//EN" "http://www.w3.org/Graphics/SVG/1.1/DTD/svg11.dtd">
<svg version="1.1" xmlns="http://www.w3.org/2000/svg" xmlns:xlink="http://www.w3.org/1999/xlink" x="0px" y="0px" width="90px"
	 height="90px" viewBox="0 0 90 90" enable-background="new 0 0 90 90" xml:space="preserve">
<g id="Layer_1" display="none">
	<path display="inline" fill="#26CAD3" d="M19.414,0h51.171c5.346,0,10.2,2.186,13.714,5.7c3.514,3.514,5.7,8.379,5.7,13.714v51.171
		c0,5.346-2.186,10.2-5.7,13.714c-3.514,3.514-8.379,5.7-13.714,5.7H19.414c-5.346,0-10.2-2.186-13.714-5.7
		C2.186,80.786,0,75.921,0,70.586V19.414C0,14.068,2.186,9.214,5.7,5.7S14.079,0,19.414,0L19.414,0z M29.925,46.832
		c-1.007,0-1.832-0.814-1.832-1.832c0-1.007,0.814-1.832,1.832-1.832h13.254V29.914c0-1.007,0.814-1.832,1.832-1.832
		c1.007,0,1.832,0.814,1.832,1.832v13.254h13.254c1.007,0,1.832,0.814,1.832,1.832c0,1.007-0.814,1.832-1.832,1.832H46.843v13.254
		c0,1.007-0.814,1.832-1.832,1.832c-1.007,0-1.832-0.814-1.832-1.832V46.832H29.925z M70.586,3.654H19.414
		c-4.329,0-8.271,1.779-11.132,4.629c-2.861,2.861-4.629,6.793-4.629,11.132v51.171c0,4.329,1.779,8.271,4.629,11.132
		c2.861,2.861,6.804,4.629,11.132,4.629h51.171c4.329,0,8.271-1.779,11.132-4.629c2.861-2.861,4.629-6.804,4.629-11.132V19.414
		c0-4.339-1.779-8.271-4.629-11.132C78.857,5.421,74.914,3.654,70.586,3.654L70.586,3.654z"/>
</g>
<g id="Layer_2" display="none">
	<path display="inline" fill="#26CAD3" d="M3.655,86.198h28.139V65.449c0-3.779,1.482-7.21,3.878-9.702
		c2.396-2.492,5.695-4.034,9.316-4.034c3.633,0,6.932,1.542,9.328,4.034c2.396,2.492,3.878,5.923,3.878,9.702v20.749h28.139V46.01
		L44.242,4.536L3.655,45.987v40.199L3.655,86.198z M33.622,90H1.828C0.814,90,0,89.154,0,88.099v-42.9h0.011
		c0-0.487,0.178-0.985,0.546-1.356l42.37-43.271c0.691-0.742,1.839-0.765,2.563-0.046l43.841,43.202
		C89.744,44.074,90,44.607,90,45.199v42.9C90,89.154,89.186,90,88.172,90H56.378c-1.014,0-1.828-0.846-1.828-1.901v-22.65
		c0-2.724-1.07-5.205-2.808-7.013C50.015,56.64,47.63,55.515,45,55.515c-2.619,0-5.004,1.113-6.742,2.921
		c-1.727,1.797-2.808,4.277-2.808,7.013v22.65C35.449,89.154,34.625,90,33.622,90L33.622,90z"/>
</g>
<g id="Layer_3">
	<path fill="#26CAD3" d="M42.253,0c11.666,0,22.237,4.73,29.88,12.373s12.373,18.213,12.373,29.88
		c0,10.974-4.182,20.982-11.046,28.495l15.978,15.978c0.75,0.75,0.75,1.961,0,2.711c-0.75,0.75-1.961,0.75-2.711,0L70.748,73.459
		c-7.513,6.864-17.507,11.046-28.495,11.046c-11.666,0-22.237-4.73-29.88-12.373S0,53.919,0,42.253s4.73-22.237,12.373-29.88
		S30.586,0,42.253,0L42.253,0z M69.422,15.099C62.471,8.148,52.867,3.85,42.253,3.85S22.035,8.148,15.084,15.099
		S3.836,31.654,3.836,42.267s4.297,20.218,11.248,27.169s16.555,11.248,27.169,11.248s20.218-4.297,27.169-11.248
		c6.951-6.951,11.248-16.555,11.248-27.169S76.372,22.049,69.422,15.099z"/>
</g>
<g id="Layer_4" display="none">
	<path display="inline" fill="#26CAD3" d="M7.725,0h74.536c1.116,0,2.019,0.903,2.019,2.019v85.96c0,1.116-0.903,2.019-2.019,2.019
		c-0.558,0-1.076-0.226-1.435-0.598L45,58.462L9.054,89.507c-0.837,0.731-2.112,0.638-2.843-0.199
		c-0.332-0.385-0.492-0.85-0.492-1.315l0,0V2.032c0-1.116,0.903-2.019,2.019-2.019L7.725,0z M44.987,4.038H9.745v79.531
		l33.914-29.291c0.744-0.651,1.873-0.677,2.657-0.013l33.927,29.291V4.025H45L44.987,4.038z"/>
</g>
<g id="Layer_5" display="none">
	<path display="inline" fill="#26CAD3" d="M55.828,3.107c6.017,0,11.463,2.445,15.415,6.383c3.939,3.939,6.383,9.399,6.383,15.402
		c0,6.017-2.431,11.463-6.383,15.415c-3.939,3.939-9.399,6.383-15.415,6.383s-11.463-2.445-15.415-6.383
		c-3.939-3.939-6.383-9.399-6.383-15.415s2.445-11.463,6.383-15.402C44.352,5.538,49.812,3.107,55.828,3.107z M1.698,42.399
		C0.761,42.399,0,41.639,0,40.701c0-0.937,0.761-1.698,1.698-1.698H14.03V26.671c0-0.937,0.761-1.698,1.698-1.698
		s1.698,0.761,1.698,1.698v12.332h12.332c0.937,0,1.698,0.761,1.698,1.698c0,0.937-0.761,1.698-1.698,1.698H17.425v12.332
		c0,0.937-0.761,1.698-1.698,1.698s-1.698-0.761-1.698-1.698V42.399H1.698z M72.887,51.893c-0.774-0.516-0.991-1.575-0.462-2.35
		c0.516-0.774,1.575-0.991,2.35-0.462c4.659,3.124,8.529,7.375,11.191,12.346C88.533,66.221,90,71.681,90,77.467v7.728
		c0,0.937-0.761,1.698-1.698,1.698H23.382c-0.937,0-1.698-0.761-1.698-1.698v-7.728c0-5.813,1.48-11.3,4.075-16.122
		c2.689-4.984,6.587-9.236,11.286-12.359c0.788-0.516,1.834-0.299,2.35,0.475c0.516,0.788,0.299,1.834-0.475,2.35
		c-4.238,2.811-7.742,6.641-10.173,11.137c-2.336,4.319-3.653,9.263-3.653,14.505v6.03h61.512v-6.03
		c0-5.215-1.317-10.146-3.626-14.451c-2.404-4.482-5.881-8.298-10.091-11.123L72.887,51.893z M68.84,11.908
		c-3.328-3.328-7.932-5.392-12.998-5.392c-5.08,0-9.684,2.064-13.011,5.392c-3.328,3.328-5.392,7.932-5.392,13.011
		s2.064,9.684,5.392,13.011c3.328,3.328,7.932,5.392,13.011,5.392c5.08,0,9.684-2.064,12.998-5.392
		c3.328-3.328,5.392-7.932,5.392-13.011S72.167,15.236,68.84,11.908z"/>
</g>
<g id="Layer_6" display="none">
	<path display="inline" fill="#26CAD3" d="M77.127,70.293c-0.197-0.424-0.227-0.878-0.136-1.302l0,0l0.015-0.045l0,0v-0.03
		l0.015-0.076l0,0l0.015-0.045l0.015-0.045l0,0l0.015-0.045l0,0l0.015-0.045l0,0l0.015-0.03v-0.015l0.015-0.03v-0.015
		c0.061-0.121,0.136-0.242,0.227-0.363c2.528-3.451,4.48-7.265,5.797-11.276c1.332-4.041,2.013-8.28,2.013-12.593
		c0-11.14-4.511-21.221-11.806-28.517C66.047,8.522,55.966,4.011,44.826,4.011S23.605,8.522,16.309,15.817
		S4.503,33.194,4.503,44.334s4.511,21.221,11.806,28.517c7.296,7.296,17.376,11.806,28.517,11.806c4.284,0,8.522-0.681,12.533-1.998
		c3.996-1.302,7.795-3.239,11.246-5.752c0.106-0.076,0.212-0.151,0.333-0.212h0.015l0.03-0.015h0.015l0.03-0.015h0.015l0.03-0.015
		c0.076-0.03,0.151-0.061,0.227-0.076h0.015h0.03h0.015h0.03l0,0l0.045-0.015h0.015h0.045l0,0h0.03h0.03h0.03
		c0.378-0.045,0.772,0,1.135,0.182l0,0c0.03,0.015,0.061,0.03,0.091,0.045l0,0l12.351,6.63l-6.024-13.078L77.127,70.293z
		 M69.997,80.873c-3.527,2.422-7.356,4.314-11.367,5.631c-4.42,1.453-9.067,2.195-13.774,2.195c-12.245,0-23.34-4.965-31.362-12.987
		S0.507,56.594,0.507,44.349s4.965-23.34,12.987-31.362S32.611,0,44.856,0s23.34,4.965,31.362,12.987s12.987,19.117,12.987,31.362
		c0,4.723-0.757,9.4-2.21,13.835c-1.332,4.072-3.254,7.947-5.737,11.488l8.052,17.467l0.015,0.03
		c0.106,0.257,0.166,0.53,0.166,0.802v0.045v0.045v0.015v0.045v0.015v0.045v0.015v0.045v0.015v0.045v0.045l0,0v0.015v0.03v0.015
		v0.03c-0.015,0.091-0.045,0.182-0.076,0.272l0,0l-0.015,0.03l-0.015,0.015l0,0l-0.015,0.045l0,0l-0.015,0.03l0,0
		c-0.015,0.045-0.045,0.091-0.061,0.136l0,0l-0.015,0.045c-0.121,0.197-0.257,0.378-0.439,0.545l-0.03,0.015l-0.015,0.015
		l-0.03,0.015h-0.015c-0.045,0.045-0.106,0.076-0.167,0.106l-0.045,0.03l0,0l-0.045,0.03l0,0l-0.045,0.015l0,0l-0.045,0.015l0,0
		l-0.045,0.015l0,0l-0.03,0.015C88.07,89.939,87.798,90,87.525,90H87.48h-0.045h-0.015h-0.045h-0.015h-0.045h-0.015h-0.045h-0.015
		h-0.045h-0.045l0,0h-0.015h-0.03h-0.015h-0.03c-0.091-0.015-0.182-0.045-0.272-0.076l0,0l-0.03-0.015l-0.015-0.015l0,0
		l-0.045-0.015l0,0l-0.03-0.015l0,0c-0.045-0.015-0.106-0.045-0.151-0.076l-16.529-8.87L69.997,80.873z"/>
</g>
<g id="Layer_7" display="none">
	<g display="inline">
		<g>
			<g>
				<path fill="#26CAD3" d="M42.996,61.681c-1.9-0.174-3.633-0.636-5.197-1.395c-1.561-0.757-2.91-1.719-4.04-2.89l1.248-1.92
					c0.11-0.171,0.267-0.311,0.471-0.421c0.203-0.11,0.416-0.165,0.636-0.165c0.299,0,0.638,0.149,1.015,0.446
					c0.377,0.295,0.839,0.636,1.39,1.017c0.549,0.382,1.205,0.752,1.968,1.111c0.761,0.361,1.676,0.601,2.743,0.727l0.873-12.433
					c-1.1-0.327-2.181-0.7-3.242-1.113c-1.059-0.416-2.01-0.956-2.851-1.621c-0.839-0.663-1.516-1.502-2.026-2.51
					c-0.512-1.011-0.766-2.273-0.766-3.791c0-1.143,0.224-2.257,0.672-3.345c0.446-1.088,1.097-2.053,1.955-2.899
					c0.857-0.846,1.914-1.536,3.169-2.078c1.257-0.54,2.702-0.809,4.337-0.809l0.235-3.418c0.032-0.295,0.149-0.562,0.354-0.796
					c0.203-0.233,0.478-0.352,0.825-0.352h1.555l-0.329,4.636c1.648,0.203,3.07,0.624,4.264,1.264
					c1.193,0.64,2.263,1.413,3.205,2.318L54.45,32.79c-0.316,0.469-0.677,0.704-1.084,0.704c-0.222,0-0.492-0.098-0.814-0.293
					c-0.322-0.197-0.711-0.423-1.166-0.679c-0.455-0.258-0.983-0.517-1.58-0.773c-0.597-0.258-1.28-0.441-2.048-0.551l-0.78,11.331
					c1.132,0.345,2.247,0.722,3.347,1.129c1.1,0.407,2.09,0.93,2.97,1.573c0.88,0.642,1.591,1.445,2.133,2.41
					c0.542,0.963,0.812,2.165,0.812,3.605c0,1.411-0.235,2.734-0.706,3.971c-0.471,1.239-1.159,2.327-2.062,3.267
					s-2.012,1.703-3.322,2.291c-1.312,0.588-2.81,0.88-4.49,0.88l-0.283,4.191c-0.03,0.297-0.153,0.558-0.364,0.784
					c-0.213,0.226-0.485,0.341-0.814,0.341h-1.555L42.996,61.681z M39.178,36.327c0,0.748,0.135,1.401,0.402,1.955
					c0.265,0.553,0.636,1.04,1.107,1.463c0.471,0.421,1.022,0.789,1.651,1.1c0.626,0.313,1.31,0.594,2.048,0.844l0.709-10.56
					c-1.022,0.094-1.907,0.297-2.652,0.61c-0.745,0.311-1.358,0.702-1.838,1.171c-0.48,0.466-0.837,0.995-1.072,1.58
					C39.297,35.074,39.178,35.687,39.178,36.327z M52.258,51.871c0-0.78-0.144-1.452-0.434-2.014
					c-0.293-0.56-0.688-1.045-1.191-1.449c-0.503-0.407-1.093-0.757-1.767-1.054c-0.677-0.297-1.399-0.569-2.167-0.821l-0.802,11.66
					c1.022-0.094,1.93-0.316,2.723-0.668c0.793-0.352,1.461-0.8,2.003-1.347c0.542-0.546,0.951-1.182,1.225-1.907
					C52.12,53.545,52.258,52.745,52.258,51.871z"/>
			</g>
		</g>
		<path fill="#26CAD3" d="M45,0C20.147,0,0,20.147,0,45s20.147,45,45,45s45-20.147,45-45S69.853,0,45,0z M45,86.463
			C22.101,86.463,3.537,67.899,3.537,45S22.101,3.537,45,3.537S86.463,22.101,86.463,45S67.899,86.463,45,86.463z"/>
	</g>
</g>
</svg>
